<svg id="layer_1" data-name="layer 1" xmlns="http://www.w3.org/2000/svg" viewBox="0 0 800 500"><defs><style>.cls-1{fill:#a3bccf;}.cls-2{fill:#fff;}.cls-3{fill:#86a4b6;}.cls-4{fill:#cce4eb;}.cls-5{fill:#ffc520;}.cls-6{fill:#023b7c;}.cls-7{fill:#e6edf1;}.cls-8{fill:#48bff4;}.cls-9{fill:#ff3f54;}.cls-10{fill:#f2f2f2;}.cls-11{fill:#ffb500;}.cls-12{fill:#1adf80;}.cls-13{fill:#00cf76;}.cls-14{fill:#f1cab7;}.cls-15{fill:#161052;}.cls-16{fill:#291a6d;}.cls-17{fill:#ed2d47;}.cls-18{fill:#ffe35b;}.cls-19{fill:#2f287a;}.cls-20{fill:#ffcd5c;}.cls-21{fill:#f5b9a7;}.cls-22{fill:#00c060;}.cls-23{fill:#fb0;}</style></defs><path class="cls-1" d="M251.67,43.32H673.76a6.3,6.3,0,0,1,6.3,6.3V317a0,0,0,0,1,0,0H245.37a0,0,0,0,1,0,0V49.62A6.3,6.3,0,0,1,251.67,43.32Z"/><rect class="cls-2" x="261.38" y="52.78" width="402.66" height="233.61" rx="5"/><rect class="cls-3" x="215.26" y="303.72" width="494.92" height="7.61"/><path class="cls-1" d="M534.07,311.33H215.26s9,15.84,71.8,17.93h351.3c62.77-2.09,71.81-17.93,71.81-17.93Z"/><path class="cls-4" d="M499.37,319.84H420.28a8.65,8.65,0,0,1-8.79-8.51h96.68A8.66,8.66,0,0,1,499.37,319.84Z"/><path class="cls-5" d="M266.38,52.22H659a5,5,0,0,1,5,5V85.11a0,0,0,0,1,0,0H261.38a0,0,0,0,1,0,0V57.22A5,5,0,0,1,266.38,52.22Z"/><path class="cls-2" d="M630.2,68.23a11.54,11.54,0,1,1,11.53,11.15A11.35,11.35,0,0,1,630.2,68.23Z"/><path class="cls-6" d="M636.66,74a.89.89,0,0,0,.62-.24l10-9.7a.82.82,0,0,0,0-1.19.89.89,0,0,0-1.23,0l-10,9.7a.82.82,0,0,0,0,1.19A.89.89,0,0,0,636.66,74Z"/><path class="cls-6" d="M646.69,74a.89.89,0,0,0,.61-.24.82.82,0,0,0,0-1.19l-10-9.7a.89.89,0,0,0-1.23,0,.82.82,0,0,0,0,1.19l10,9.7A.89.89,0,0,0,646.69,74Z"/><path class="cls-4" d="M344.72,221.85v31.64a6,6,0,0,1-6.15,5.94h-49a6,6,0,0,1-6.14-5.94V221.85a6,6,0,0,1,6.14-5.95h49A6,6,0,0,1,344.72,221.85Z"/><path class="cls-7" d="M344.72,240V255.9a3.59,3.59,0,0,1-3.65,3.53h-54a3.59,3.59,0,0,1-3.65-3.53v-1.36l13.44-14.48a1.71,1.71,0,0,1,2.45,0l10.07,10.08a1.7,1.7,0,0,0,2.43,0l20.71-21.84a1.7,1.7,0,0,1,2.54.08Z"/><path class="cls-7" d="M303.36,226.83a6.14,6.14,0,1,0-6.14,5.94A6,6,0,0,0,303.36,226.83Z"/><path class="cls-4" d="M417.6,221.85v31.64a6,6,0,0,1-6.15,5.94h-49a6,6,0,0,1-6.14-5.94V221.85a6,6,0,0,1,6.14-5.95h49A6,6,0,0,1,417.6,221.85Z"/><path class="cls-7" d="M417.6,240V255.9a3.59,3.59,0,0,1-3.65,3.53H360a3.59,3.59,0,0,1-3.65-3.53v-1.36l13.44-14.48a1.71,1.71,0,0,1,2.45,0l10.07,10.08a1.7,1.7,0,0,0,2.43,0l20.71-21.84a1.7,1.7,0,0,1,2.54.08Z"/><path class="cls-7" d="M376.24,226.83a6.14,6.14,0,1,0-6.14,5.94A6,6,0,0,0,376.24,226.83Z"/><path class="cls-4" d="M490.48,221.85v31.64a6,6,0,0,1-6.15,5.94h-49a6,6,0,0,1-6.14-5.94V221.85a6,6,0,0,1,6.14-5.95h49A6,6,0,0,1,490.48,221.85Z"/><path class="cls-7" d="M490.48,240V255.9a3.59,3.59,0,0,1-3.65,3.53h-54a3.59,3.59,0,0,1-3.65-3.53v-1.36l13.44-14.48a1.71,1.71,0,0,1,2.45,0l10.07,10.08a1.7,1.7,0,0,0,2.43,0l20.71-21.84a1.7,1.7,0,0,1,2.54.08Z"/><ellipse class="cls-7" cx="442.98" cy="226.83" rx="6.14" ry="5.94"/><rect class="cls-1" x="281.64" y="100.38" width="211.07" height="101.37" rx="5.05"/><rect class="cls-7" x="289.95" y="106.51" width="194.45" height="89.11" rx="3.03"/><path class="cls-8" d="M354.38,140.68c.12,1.79,13.67,2.4,30.27,1.36s29.94-3.35,29.82-5.14-13.67-2.41-30.26-1.37S354.26,138.88,354.38,140.68Z"/><path class="cls-1" d="M386.72,172.34A184.46,184.46,0,0,1,354.65,170l-.09-30.44,60.2-1.36.73,30.24A123.13,123.13,0,0,1,386.72,172.34Z"/><path class="cls-4" d="M332.94,172.38l4.55-5.15h0l0,0h0s0,0,0,0h.54l0,0h0l0,0h0l4.45,5.23a.48.48,0,0,1-.38.77.48.48,0,0,1-.37-.17L341,172l.7,1.21a.47.47,0,0,1-.18.64.54.54,0,0,1-.25.06.5.5,0,0,1-.42-.24l-.7-1.21.48,1.31a.47.47,0,0,1-.3.6.51.51,0,0,1-.17,0,.47.47,0,0,1-.45-.32l-.48-1.31.24,1.37a.49.49,0,0,1-.4.55H339a.47.47,0,0,1-.47-.39l-.24-1.37,0,1.39a.48.48,0,0,1-.49.47.49.49,0,0,1-.48-.48l0-1.39-.27,1.36a.48.48,0,0,1-.48.39h-.09a.48.48,0,0,1-.39-.55l.27-1.37-.51,1.31a.47.47,0,0,1-.46.3.45.45,0,0,1-.16,0,.46.46,0,0,1-.29-.6l.5-1.3-.72,1.19a.51.51,0,0,1-.43.23.53.53,0,0,1-.24-.06.46.46,0,0,1-.17-.65l.73-1.19-.94,1.05a.5.5,0,0,1-.37.17A.47.47,0,0,1,333,173,.46.46,0,0,1,332.94,172.38Z"/><path class="cls-4" d="M337.07,138.15a1.24,1.24,0,0,1,0,.27l-.29,29,1.95,0,.29-28.95C339.06,136.65,337,137.53,337.07,138.15Z"/><path class="cls-4" d="M335.92,167.36a2,2,0,1,1,1.93,1.91A1.92,1.92,0,0,1,335.92,167.36Z"/><polygon class="cls-3" points="385.55 156.82 324.79 139.91 324.75 137.67 330.09 137.57 330.74 137.29 332.68 136.44 382.32 118.36 438.15 136.44 441.66 135.62 441.7 137.86 385.55 156.82"/><polygon class="cls-1" points="382.28 116.12 324.75 137.67 385.51 154.58 441.66 135.62 382.28 116.12"/><path class="cls-9" d="M409.07,143c0-11.71-9.8-21.2-21.89-21.2s-21.9,9.49-21.9,21.2,9.81,21.19,21.9,21.19S409.07,154.74,409.07,143Z"/><path class="cls-2" d="M401.12,142.68l-20.06-11.2a.4.4,0,0,0-.59.35v22.41a.4.4,0,0,0,.59.35l20.06-11.2A.41.41,0,0,0,401.12,142.68Z"/><path class="cls-4" d="M475.18,183.25a3.66,3.66,0,0,1-3.73,3.61H302.91a3.61,3.61,0,1,1,0-7.22H471.45A3.67,3.67,0,0,1,475.18,183.25Z"/><path class="cls-9" d="M335.92,179.64v7.22h-33a3.61,3.61,0,1,1,0-7.22Z"/><path class="cls-1" d="M537,111.2H523.44a2.07,2.07,0,1,1,0-4.13H537a2.07,2.07,0,1,1,0,4.13Z"/><path class="cls-1" d="M628.07,111.2H550.35a2.07,2.07,0,1,1,0-4.13h77.72a2.07,2.07,0,1,1,0,4.13Z"/><path class="cls-1" d="M537,142.32H523.44a2.07,2.07,0,1,1,0-4.13H537a2.07,2.07,0,1,1,0,4.13Z"/><path class="cls-1" d="M628.07,142.32H550.35a2.07,2.07,0,1,1,0-4.13h77.72a2.07,2.07,0,1,1,0,4.13Z"/><path class="cls-1" d="M601,121.57H523.44a2.07,2.07,0,1,1,0-4.13H601a2.07,2.07,0,1,1,0,4.13Z"/><path class="cls-1" d="M628.07,121.57H613.58a2.07,2.07,0,1,1,0-4.13h14.49a2.07,2.07,0,1,1,0,4.13Z"/><path class="cls-1" d="M601,152.69H523.44a2.06,2.06,0,1,1,0-4.12H601a2.06,2.06,0,1,1,0,4.12Z"/><path class="cls-1" d="M628.07,152.69H613.58a2.06,2.06,0,1,1,0-4.12h14.49a2.06,2.06,0,1,1,0,4.12Z"/><path class="cls-1" d="M554.68,131.94H523.44a2.06,2.06,0,1,1,0-4.12h31.24a2.06,2.06,0,1,1,0,4.12Z"/><path class="cls-1" d="M628.07,131.94H571.8a2.06,2.06,0,1,1,0-4.12h56.27a2.06,2.06,0,1,1,0,4.12Z"/><path class="cls-1" d="M537,170.73H523.44a2.07,2.07,0,1,1,0-4.13H537a2.07,2.07,0,1,1,0,4.13Z"/><path class="cls-1" d="M628.07,170.73H550.35a2.07,2.07,0,1,1,0-4.13h77.72a2.07,2.07,0,1,1,0,4.13Z"/><path class="cls-1" d="M537,201.85H523.44a2.07,2.07,0,1,1,0-4.13H537a2.07,2.07,0,1,1,0,4.13Z"/><path class="cls-1" d="M628.07,201.85H550.35a2.07,2.07,0,1,1,0-4.13h77.72a2.07,2.07,0,1,1,0,4.13Z"/><path class="cls-1" d="M601,181.1H523.44a2.07,2.07,0,1,1,0-4.13H601a2.07,2.07,0,1,1,0,4.13Z"/><path class="cls-1" d="M628.07,181.1H613.58a2.07,2.07,0,1,1,0-4.13h14.49a2.07,2.07,0,1,1,0,4.13Z"/><path class="cls-1" d="M601,212.23H523.44a2.07,2.07,0,1,1,0-4.13H601a2.07,2.07,0,1,1,0,4.13Z"/><path class="cls-1" d="M628.07,212.23H613.58a2.07,2.07,0,1,1,0-4.13h14.49a2.07,2.07,0,1,1,0,4.13Z"/><path class="cls-1" d="M554.68,191.48H523.44a2.07,2.07,0,1,1,0-4.13h31.24a2.07,2.07,0,1,1,0,4.13Z"/><path class="cls-1" d="M628.07,191.48H571.8a2.07,2.07,0,1,1,0-4.13h56.27a2.07,2.07,0,1,1,0,4.13Z"/><path class="cls-1" d="M537,245.77H523.44a2.06,2.06,0,1,1,0-4.12H537a2.06,2.06,0,1,1,0,4.12Z"/><path class="cls-1" d="M628.07,245.77H550.35a2.06,2.06,0,1,1,0-4.12h77.72a2.06,2.06,0,1,1,0,4.12Z"/><path class="cls-1" d="M601,225H523.44a2.07,2.07,0,1,1,0-4.13H601a2.07,2.07,0,1,1,0,4.13Z"/><path class="cls-1" d="M628.07,225H613.58a2.07,2.07,0,1,1,0-4.13h14.49a2.07,2.07,0,1,1,0,4.13Z"/><path class="cls-1" d="M601,256.15H523.44a2.07,2.07,0,1,1,0-4.13H601a2.07,2.07,0,1,1,0,4.13Z"/><path class="cls-1" d="M628.07,256.15H613.58a2.07,2.07,0,1,1,0-4.13h14.49a2.07,2.07,0,1,1,0,4.13Z"/><path class="cls-1" d="M554.68,235.4H523.44a2.07,2.07,0,1,1,0-4.13h31.24a2.07,2.07,0,1,1,0,4.13Z"/><path class="cls-1" d="M628.07,235.4H571.8a2.07,2.07,0,1,1,0-4.13h56.27a2.07,2.07,0,1,1,0,4.13Z"/><path class="cls-10" d="M111.9,285.18l56.84,37.38,111.33,1.8-52.32-43.52a2.65,2.65,0,0,0-1.71-.65H112.75C110.68,280.19,110,284,111.9,285.18Z"/><path class="cls-4" d="M258.3,318.35a.51.51,0,0,1-.36-.14l-24.26-20.38a1.09,1.09,0,0,1-.21-1.24.58.58,0,0,1,.92-.29l24.26,20.38a1.1,1.1,0,0,1,.21,1.24A.65.65,0,0,1,258.3,318.35Z"/><path class="cls-4" d="M226,291.2a.51.51,0,0,1-.35-.14l-5.24-4.4a1.11,1.11,0,0,1-.22-1.24.58.58,0,0,1,.92-.29l5.24,4.4a1.1,1.1,0,0,1,.22,1.24A.66.66,0,0,1,226,291.2Z"/><path class="cls-4" d="M246.54,318.35a.51.51,0,0,1-.35-.14l-37.55-31.55a1.1,1.1,0,0,1-.22-1.24.58.58,0,0,1,.92-.29l37.56,31.55a1.11,1.11,0,0,1,.21,1.24A.65.65,0,0,1,246.54,318.35Z"/><path class="cls-4" d="M234.79,318.35a.51.51,0,0,1-.35-.14L209.2,297a1.09,1.09,0,0,1-.21-1.24.57.57,0,0,1,.91-.29l25.24,21.2a1.1,1.1,0,0,1,.22,1.24A.66.66,0,0,1,234.79,318.35Z"/><path class="cls-4" d="M204.26,292.7a.56.56,0,0,1-.35-.14l-7-5.9a1.11,1.11,0,0,1-.21-1.24.58.58,0,0,1,.92-.29l7,5.9a1.1,1.1,0,0,1,.22,1.24A.66.66,0,0,1,204.26,292.7Z"/><path class="cls-4" d="M223,318.35a.51.51,0,0,1-.35-.14l-37.56-31.55a1.09,1.09,0,0,1-.21-1.24.58.58,0,0,1,.92-.29l37.55,31.55a1.12,1.12,0,0,1,.22,1.24A.66.66,0,0,1,223,318.35Z"/><path class="cls-4" d="M211.29,318.35a.49.49,0,0,1-.35-.14l-37.56-31.55a1.11,1.11,0,0,1-.22-1.24.58.58,0,0,1,.92-.29l37.56,31.55a1.1,1.1,0,0,1,.21,1.24A.64.64,0,0,1,211.29,318.35Z"/><path class="cls-4" d="M187.78,318.35a.51.51,0,0,1-.35-.14l-20.68-17.37a1.09,1.09,0,0,1-.21-1.24.57.57,0,0,1,.91-.29l20.69,17.37a1.11,1.11,0,0,1,.21,1.24A.65.65,0,0,1,187.78,318.35Z"/><path class="cls-4" d="M159,294.2a.54.54,0,0,1-.31-.1l-10.61-7.4a1.08,1.08,0,0,1-.29-1.22c.17-.44.58-.61.9-.39l10.62,7.41a1.08,1.08,0,0,1,.28,1.21A.68.68,0,0,1,159,294.2Z"/><path class="cls-4" d="M175.91,318.35a.56.56,0,0,1-.32-.11l-41.26-30.07a1.09,1.09,0,0,1-.27-1.22c.17-.44.58-.6.9-.37l41.27,30.07a1.11,1.11,0,0,1,.27,1.23A.67.67,0,0,1,175.91,318.35Z"/><path class="cls-3" d="M346.93,335.13H175.1a3.29,3.29,0,0,1-3.34-3.24h0a3.29,3.29,0,0,1,3.34-3.23H346.93a3.29,3.29,0,0,1,3.35,3.23h0A3.3,3.3,0,0,1,346.93,335.13Z"/><path class="cls-10" d="M269.46,335.13H97.62a3.29,3.29,0,0,1-3.34-3.24h0a3.29,3.29,0,0,1,3.34-3.23H269.46a3.29,3.29,0,0,1,3.34,3.23h0A3.29,3.29,0,0,1,269.46,335.13Z"/><path class="cls-3" d="M346.93,328.66H175.1a3.29,3.29,0,0,1-3.34-3.24h0a3.29,3.29,0,0,1,3.34-3.23H346.93a3.29,3.29,0,0,1,3.35,3.23h0A3.3,3.3,0,0,1,346.93,328.66Z"/><path class="cls-10" d="M269.46,328.66H97.62a3.29,3.29,0,0,1-3.34-3.24h0a3.29,3.29,0,0,1,3.34-3.23H269.46a3.29,3.29,0,0,1,3.34,3.23h0A3.29,3.29,0,0,1,269.46,328.66Z"/><path class="cls-11" d="M175.68,350.29H356.94a7.49,7.49,0,0,0,7.26-7.71h0a7.49,7.49,0,0,0-7.26-7.7H186.66l-4.39-.51-5.69.51h-4.82Z"/><path class="cls-5" d="M277.8,350.29H188.18v-9c0-3.66-2.8-5.12-6.25-5.12s-6.25,1.46-6.25,5.12v9H90a7.59,7.59,0,0,1,0-15.16h72.23c2.51-9,10.39-14.14,19.7-14.14s17.2,5.1,19.7,14.14H277.8a7.59,7.59,0,0,1,0,15.16Z"/><path class="cls-12" d="M347.57,345.21c3.81,20.82,14.61,38.6,34.81,46.3,64.08,24.46,118.3,12.52,143-13.66,12.36-13.14,10-25.21,1.33-35.49-13.79-16.42-43.55-28.24-54.79-32.45-18.31-6.87-26-73.55-74.58-71.24C364,240.25,339.24,299.91,347.57,345.21Z"/><path class="cls-13" d="M477.15,352.43s-31-3.68-46.78-23.28-15-47.7-25.54-59.52-14.44-15.07-14.44-15.07,14.36,19.08,16,29.6-9.49-1.84-22.35-2.37c0,0,18.85,12,24,22.93,0,0-17.29-.9-28.49,14.24,0,0,21.46-6.61,28.31-6.5,0,0-11.88,1.85-15.65,7.62,0,0,13.58-2.15,17.14.69s7.38,9.1,7.38,9.1-31.43,9.88-35.36,25.1c0,0,23.24-17.57,38.15-14.92,0,0-19.37,5.87-20.26,30.4,0,0,13.43-23.75,22.91-24.5,0,0-9.2,9.11-9.18,18.5,0,0,7.88-14.58,11.19-16.88S440.62,359.9,438,379.36c0,0,7.1-20.11-.68-30.27,0,0,24.34,7.88,23.64,27.68,0,0,4.38-14.61-5.47-23.59C455.46,353.18,468.09,356.37,477.15,352.43Z"/><path class="cls-13" d="M347.57,345.21c2.18,22.63,19.25,43.05,39.53,51.87,51.57,22.42,113.58,6.95,138.23-19.23,12.36-13.14,10-25.21,1.33-35.49.23,7.86-1.14,23.09-13.44,33.43-17.22,14.47-69.78,23.41-107,13.58C377.46,381.79,356.92,360.3,347.57,345.21Z"/><path class="cls-9" d="M522.86,393.71s12.35,3.42,15.53,8.93-18.95.74-18.95.74-.39,4.54-1.21,5-4.67-8.21-3.05-12.38S522.86,393.71,522.86,393.71Z"/><path class="cls-14" d="M518.65,383.18,521,393.46s8.46,3.88,7.51,6.87-13.65-1.92-13.65-1.92l-4.52-10.76Z"/><path class="cls-9" d="M542.38,390.26s12.43,3.18,15.72,8.62S539.17,400,539.17,400s-.29,4.55-1.09,5-4.85-8.11-3.33-12.32S542.38,390.26,542.38,390.26Z"/><path class="cls-14" d="M537.94,379.82l2.59,10.24s8.55,3.7,7.66,6.71-13.69-1.64-13.69-1.64l-4.75-10.67Z"/><path class="cls-15" d="M502.47,343.55c3.82,2.2,26.13,44.77,26.13,44.77a96.6,96.6,0,0,0,12.59-3s-16.37-48.56-25.1-54.15c-23.3-14.92-68.61-28.77-68.61-28.77l-15.19,16.14S489.82,336.24,502.47,343.55Z"/><path class="cls-16" d="M409.62,281.71c-3,0-9.9-2.86-13.27-10.11s4-13.56,3.27-20.62-3.13-18.57-3-22c.32-8.29,7.83-18.34,26.67-19.24C446.75,208.6,440,231.07,442,237.14s3.65,13.81.93,18.48S409.62,281.71,409.62,281.71Z"/><path class="cls-16" d="M417.9,317.07s-.69,29.89,31.56,31.47c19.91,1,26.76-.3,35.17,1.47a5.06,5.06,0,0,1,3.65,3c5.44,13.07,21.14,38.79,21.14,38.79s4.85,1.54,13.46-3c0,0-15.41-40.88-20.44-48-8.3-11.73-70.59-30.92-70.59-30.92Z"/><path class="cls-7" d="M459.53,310.66c-3.51,10.13-44.41,25-44.41,25s4-44.33,1.59-53.9c-2.6,2.22-5.74,4.94-5.74,4.94s-8.59-7.72-7-19.39,17-16.18,17-16.18,18.72-4.71,29.43,5.88a36.49,36.49,0,0,1,4.54,6.27l-.94.54h0c-1.91,1.09-4.8,2.75-4.79,2.8A9.81,9.81,0,0,1,452,271a12.33,12.33,0,0,1-.88,6.12c-1.5,4.37-4.09,9.15-3.6,12.48C448.33,295.37,459.53,310.66,459.53,310.66Z"/><path class="cls-4" d="M491.71,318.27l-45.42,2.16,5.22-35.62a1.79,1.79,0,0,1,1.69-1.49l41.76-2a1.76,1.76,0,0,1,1.87,2Z"/><path class="cls-14" d="M433.67,258.61c.23,1.48-1.66,4-5.61,2.2-.93-.42-9.61-4.81-7.32-9.69l-1-10.14,9.44,4.24.56,5A15.5,15.5,0,0,1,433.67,258.61Z"/><path class="cls-14" d="M439.16,221.14s3.86,18.33-6.18,25.3-16.6-10.73-16.6-10.73-2.12-2.86-1.92-5c.27-3.09,4.31-.56,4.31-.56l-.48-7.76,8.42-.49Z"/><path class="cls-16" d="M444.09,219.31c-2.87-4.66-8.17-4.09-9.74-1.17-1.86-4.15-8.78-7.86-16.74-5.46-10.56,3.19-13.22,8-14.33,15.85-.58,4.06,7,18.18,11.45,16s2.21-4.24,2.35-6.84,10.21-6.46,14.82-9.61a8.06,8.06,0,0,0,3.72-7c1.9,1.9,4.9,4.76,6.12,5.14C443.57,226.74,445.39,221.41,444.09,219.31Z"/><path class="cls-14" d="M439,233.07a41.11,41.11,0,0,0,1.53,4.65c.84,1.67-3.33,1.24-3.33,1.24Z"/><polygon class="cls-2" points="447.31 313.46 425.37 314.5 446.29 320.43 447.31 313.46"/><polygon class="cls-4" points="425.37 314.5 425.44 315.8 446.36 321.71 446.29 320.43 425.37 314.5"/><polygon class="cls-2" points="491.71 318.27 446.29 320.43 446.36 321.71 491.76 319.27 491.71 318.27"/><path class="cls-14" d="M411.75,286.07s9.45,15.74,13.8,19.08c4.14,3.17,21.94,7.12,21.94,7.12l.51-3.47s-13.62-6-16.45-9.21c-4.82-5.47-12.51-19.81-12.51-19.81Z"/><path class="cls-14" d="M462.19,282.89l-7.2.35a41.62,41.62,0,0,1-3.89-6.12A12.33,12.33,0,0,0,452,271a9.81,9.81,0,0,0-2.77-4.34c0-.05,2.51-1.49,4.42-2.59l.38-.21s3.56,10.76,4.58,12.84S462.19,282.89,462.19,282.89Z"/><path class="cls-16" d="M709,277.38a2.25,2.25,0,0,1-.11-2.23L761.3,172.46a2.38,2.38,0,0,1,2.12-1.28h13.27a2.37,2.37,0,0,1,2,1.09,2.23,2.23,0,0,1,.11,2.22L726.39,277.18a2.38,2.38,0,0,1-2.13,1.28H711A2.39,2.39,0,0,1,709,277.38Zm63.88-101.61h-8l-50.09,98.1h8Z"/><path class="cls-16" d="M761.67,175l-62.53-66.63a2.24,2.24,0,0,1-.41-2.47,2.39,2.39,0,0,1,2.17-1.36h13.26a2.39,2.39,0,0,1,1.75.75l62.53,66.63a2.22,2.22,0,0,1,.41,2.46,2.38,2.38,0,0,1-2.16,1.37H763.42A2.4,2.4,0,0,1,761.67,175Zm-48.56-65.88h-6.86l58.22,62h6.87Z"/><path class="cls-17" d="M703.26,272.5h31.59a5,5,0,0,1,5,5v9a0,0,0,0,1,0,0H698.25a0,0,0,0,1,0,0v-9A5,5,0,0,1,703.26,272.5Z"/><path class="cls-9" d="M689.88,279.53h58.35a5.4,5.4,0,0,1,5.4,5.4v15.68a0,0,0,0,1,0,0H684.47a0,0,0,0,1,0,0V284.93A5.41,5.41,0,0,1,689.88,279.53Z"/><path class="cls-18" d="M676.28,165.38a18.26,18.26,0,0,0-3.63-26.14,19.69,19.69,0,0,0-27,3.51,18.25,18.25,0,0,0,3.63,26.14A19.7,19.7,0,0,0,676.28,165.38Z"/><path class="cls-17" d="M690.44,151.16l-34.25-25.29,22.7-28.78a22,22,0,0,1,30.19-3.93h0a20.41,20.41,0,0,1,4,29.22Z"/><path class="cls-9" d="M696.23,187.87c19-27.25,18.34-60.29-2.28-75.52s-53.73-7.15-75.86,17.81Z"/><path class="cls-19" d="M766.74,173.25a4.27,4.27,0,1,0-4.27,4.12A4.2,4.2,0,0,0,766.74,173.25Z"/><path class="cls-2" d="M765,173.25a2.51,2.51,0,1,0-2.52,2.43A2.48,2.48,0,0,0,765,173.25Z"/><path class="cls-19" d="M779.25,173.25a4.26,4.26,0,1,0-4.26,4.12A4.2,4.2,0,0,0,779.25,173.25Z"/><path class="cls-2" d="M777.5,173.25a2.51,2.51,0,1,0-2.51,2.43A2.48,2.48,0,0,0,777.5,173.25Z"/><path class="cls-5" d="M705.55,332.91v2a5.33,5.33,0,0,0,5.39,5.26h1.44v5.26H649.55a10.49,10.49,0,0,1-10.61-10.36v-2.33a10.49,10.49,0,0,1,10.61-10.37h62.83v5.21h-1.44A5.34,5.34,0,0,0,705.55,332.91Z"/><path class="cls-7" d="M763,338.77a29,29,0,0,0,.53,3.5H703.81V326.36h59.75a20,20,0,0,0-.53,3.07c0,.23,0,.49-.08.75,0,.43-.06.89-.09,1.39,0,.24,0,.5,0,.76,0,.44,0,.91,0,1.39v.76c0,.48,0,.94,0,1.39,0,.26,0,.51,0,.75,0,.49.06,1,.09,1.4C763,338.28,763,338.53,763,338.77Z"/><path class="cls-20" d="M767.13,342.85a2.66,2.66,0,0,1-2.69,2.63h-53.5A10.66,10.66,0,0,1,700.17,335v-2a10.64,10.64,0,0,1,9.67-10.49c.36,0,.73-.05,1.1-.05h53.5a2.63,2.63,0,1,1,0,5.26h-53.5a5.34,5.34,0,0,0-5.39,5.28v2a5.33,5.33,0,0,0,5.39,5.26h53.5A2.66,2.66,0,0,1,767.13,342.85Z"/><path class="cls-4" d="M763,329.43c0,.23,0,.49-.08.75H714.12a.37.37,0,0,1-.38-.37.38.38,0,0,1,.38-.38Z"/><path class="cls-4" d="M762.86,331.57c0,.24,0,.5,0,.76H712.48a.38.38,0,0,1-.38-.38.39.39,0,0,1,.38-.38Z"/><path class="cls-4" d="M762.8,334.48H711.5a.39.39,0,0,1-.38-.38.38.38,0,0,1,.38-.38h51.3v.76Z"/><path class="cls-4" d="M762.87,336.62H712.48a.38.38,0,1,1,0-.75h50.35C762.84,336.13,762.85,336.38,762.87,336.62Z"/><path class="cls-4" d="M763,338.77H714.12a.38.38,0,0,1-.38-.38.37.37,0,0,1,.38-.37H763C763,338.28,763,338.53,763,338.77Z"/><path class="cls-13" d="M734.31,343.48l-3.08-3-3.07,3s.16-3.76.21-6.72a43.41,43.41,0,0,0-.21-5.19h6.15a48.59,48.59,0,0,1,.22,5.14C734.53,340,734.31,343.48,734.31,343.48Z"/><path class="cls-13" d="M706.32,357.73v2.32a5.86,5.86,0,0,0,5.75,5.94h1.54v5.94H629.77a11.5,11.5,0,0,1-11.31-11.7V357.6a11.51,11.51,0,0,1,11.31-11.71h83.84v5.88h-1.54A5.86,5.86,0,0,0,706.32,357.73Z"/><path class="cls-7" d="M767.63,364.35a36.09,36.09,0,0,0,.58,4H704.47v-18h63.74a22.9,22.9,0,0,0-.58,3.46c0,.27,0,.56-.08.85,0,.49-.06,1-.1,1.57l0,.85c0,.51,0,1,0,1.58v.85c0,.55,0,1.07,0,1.57,0,.3,0,.58,0,.85,0,.56.06,1.09.1,1.58C767.58,363.8,767.62,364.08,767.63,364.35Z"/><path class="cls-12" d="M772,369a2.92,2.92,0,0,1-2.87,3H712.07a11.7,11.7,0,0,1-11.49-11.88v-2.32a11.76,11.76,0,0,1,10.32-11.84,11.17,11.17,0,0,1,1.17-.06h57.07a3,3,0,0,1,0,5.94H712.07a5.86,5.86,0,0,0-5.75,6v2.32a5.86,5.86,0,0,0,5.75,5.94h57.07A2.92,2.92,0,0,1,772,369Z"/><path class="cls-4" d="M767.63,353.8c0,.27,0,.56-.08.85H715.46a.41.41,0,0,1-.41-.42.42.42,0,0,1,.41-.43Z"/><path class="cls-4" d="M767.45,356.22l0,.85h-53.7a.41.41,0,0,1-.41-.42.42.42,0,0,1,.41-.43Z"/><path class="cls-4" d="M767.39,359.5H712.68a.43.43,0,0,1,0-.85h54.71v.85Z"/><path class="cls-4" d="M767.47,361.92H713.72a.41.41,0,0,1-.41-.42.42.42,0,0,1,.41-.43h53.71C767.44,361.37,767.44,361.65,767.47,361.92Z"/><path class="cls-4" d="M767.63,364.35H715.46a.43.43,0,0,1,0-.85h52.11C767.58,363.8,767.62,364.08,767.63,364.35Z"/><path class="cls-9" d="M737,369.67l-3.28-3.39-3.28,3.39s.18-4.24.23-7.59a51.88,51.88,0,0,0-.23-5.86H737s.23,2.1.23,5.81S737,369.67,737,369.67Z"/><path class="cls-13" d="M726.9,310.46v1.92a4.84,4.84,0,0,0,4.75,4.91h1.28v4.92H663.57a9.52,9.52,0,0,1-9.35-9.69v-2.17a9.51,9.51,0,0,1,9.35-9.68h69.36v4.86h-1.28A4.85,4.85,0,0,0,726.9,310.46Z"/><path class="cls-7" d="M777.62,315.94a30.32,30.32,0,0,0,.47,3.27H725.36V304.35h52.73a18.49,18.49,0,0,0-.47,2.86c0,.22,0,.46-.07.71s0,.82-.08,1.3c0,.22,0,.46,0,.7,0,.41,0,.85,0,1.3v.71c0,.45,0,.88,0,1.3,0,.24,0,.47,0,.7,0,.46.06.9.09,1.31C777.58,315.48,777.6,315.71,777.62,315.94Z"/><path class="cls-12" d="M781.24,319.75a2.41,2.41,0,0,1-2.37,2.46H731.65a9.68,9.68,0,0,1-9.5-9.83v-1.92a9.73,9.73,0,0,1,8.53-9.79,7.88,7.88,0,0,1,1-.05h47.22a2.46,2.46,0,0,1,0,4.91H731.65a4.85,4.85,0,0,0-4.75,4.93v1.92a4.84,4.84,0,0,0,4.75,4.91h47.22A2.42,2.42,0,0,1,781.24,319.75Z"/><path class="cls-4" d="M777.62,307.21c0,.22,0,.46-.07.71H734.46a.36.36,0,0,1,0-.71Z"/><path class="cls-4" d="M777.47,309.22c0,.22,0,.46,0,.7H733a.35.35,0,0,1,0-.7Z"/><path class="cls-4" d="M777.42,311.93H732.15a.34.34,0,0,1-.33-.35.34.34,0,0,1,.33-.36h45.27v.71Z"/><path class="cls-4" d="M777.48,313.93H733a.34.34,0,0,1-.34-.35.35.35,0,0,1,.34-.35h44.43C777.46,313.47,777.46,313.7,777.48,313.93Z"/><path class="cls-4" d="M777.62,315.94H734.46a.35.35,0,0,1-.34-.35.34.34,0,0,1,.34-.35h43.11C777.58,315.48,777.6,315.71,777.62,315.94Z"/><path class="cls-9" d="M752.28,320.34l-2.72-2.81-2.71,2.81s.15-3.51.19-6.28a43.19,43.19,0,0,0-.19-4.84h5.43s.19,1.73.19,4.8S752.28,320.34,752.28,320.34Z"/><path class="cls-1" d="M614.3,371.93H720.07a0,0,0,0,1,0,0V409a0,0,0,0,1,0,0H614.3a6.68,6.68,0,0,1-6.68-6.68v-23.7A6.68,6.68,0,0,1,614.3,371.93Z"/><path class="cls-7" d="M785.76,402.51c.18,2,.34,3.29.34,3.29H714.53V375.68H786.1s-.21,1.7-.43,4.33l-.06.69c-.06.75-.11,1.57-.18,2.43l0,.69c0,.77-.09,1.58-.12,2.42l0,.69c0,.79,0,1.61,0,2.43,0,.22,0,.46,0,.69v.69c0,.58,0,1.16,0,1.73,0,.24,0,.46,0,.69q0,1.24.09,2.43c0,.23,0,.46,0,.69,0,.84.09,1.65.14,2.42,0,.24,0,.47,0,.69.06.88.13,1.7.19,2.43Q785.73,402.18,785.76,402.51Z"/><path class="cls-3" d="M786.7,409H721a10.47,10.47,0,0,1-10.27-10.64V382.58A10.48,10.48,0,0,1,721,371.93H786.7a2.43,2.43,0,0,1,0,4.85H721a5.7,5.7,0,0,0-5.59,5.8v15.77a5.7,5.7,0,0,0,5.59,5.8H786.7a2.42,2.42,0,0,1,0,4.84Z"/><path class="cls-4" d="M785.67,380l-.06.69H720.85a.35.35,0,0,1,0-.69Z"/><path class="cls-4" d="M785.43,383.13l0,.69H720.85a.35.35,0,0,1,0-.69Z"/><path class="cls-4" d="M785.28,386.24l0,.69h-64.4a.35.35,0,0,1,0-.69Z"/><path class="cls-4" d="M785.2,389.36c0,.22,0,.46,0,.69H720.85a.35.35,0,0,1,0-.69Z"/><path class="cls-4" d="M785.21,393.16H720.85a.35.35,0,0,1,0-.69H785.2C785.21,392.71,785.21,392.93,785.21,393.16Z"/><path class="cls-4" d="M785.32,396.28H720.85a.35.35,0,0,1,0-.69H785.3C785.3,395.82,785.31,396.05,785.32,396.28Z"/><path class="cls-4" d="M785.51,399.39H720.85a.35.35,0,0,1,0-.69h64.61C785.48,398.94,785.49,399.17,785.51,399.39Z"/><path class="cls-4" d="M785.76,402.51H720.85a.35.35,0,0,1,0-.69H785.7Q785.73,402.18,785.76,402.51Z"/><path class="cls-9" d="M770.71,401.94l-3.84-4-3.82,4s.21-5,.26-8.86a61.44,61.44,0,0,0-.26-6.84h7.66s.26,2.44.26,6.78S770.71,401.94,770.71,401.94Z"/><path class="cls-4" d="M696.39,395.59H625.06a5,5,0,0,1-4.95-5.13h0a5,5,0,0,1,4.95-5.12h71.33a5,5,0,0,1,5,5.12h0A5,5,0,0,1,696.39,395.59Z"/><path class="cls-2" d="M649.25,156.29a7.37,7.37,0,0,0,.17,5.87,8.49,8.49,0,0,0,4.89,4.37,9.47,9.47,0,0,1-6.23-3.59,9.62,9.62,0,0,1-1.87-7.38v-.07a1.58,1.58,0,0,1,1.81-1.27,1.54,1.54,0,0,1,1.32,1.74A1.59,1.59,0,0,1,649.25,156.29Z"/><path class="cls-9" d="M328.38,383.24c1.18,12.67,7.11,23.18,17,28.14,3.4,1.71,7.33,1.58,11.63,1.83,16.76,1,28.95-9.67,32.11-26.43,3-16-11.57-31.19-28.89-25.25a49.39,49.39,0,0,0-6.82-1.26C335.76,358.36,327,368.8,328.38,383.24Z"/><path class="cls-2" d="M380,370.48a16.08,16.08,0,0,1,1.15,1.85c.32.58.6,1.17.87,1.76a29.22,29.22,0,0,1,1.31,3.63,23,23,0,0,1,.83,7.48,19.86,19.86,0,0,1-1.68,7.07,20.62,20.62,0,0,1-1.65,3.12c-.61,1-1.39,1.89-2.06,2.8.39-1.08.87-2.1,1.17-3.18a19.46,19.46,0,0,0,.65-3.23,17,17,0,0,0-.34-6.3,18.32,18.32,0,0,0-2.36-5.61,21.62,21.62,0,0,0-1.79-2.42c-.32-.38-.65-.75-1-1.09a7,7,0,0,0-1-.84,3.85,3.85,0,0,1-1.33-5.4,4.13,4.13,0,0,1,5.58-1.28,4,4,0,0,1,1.17,1.05Z"/><path class="cls-17" d="M328.38,383.24c1.18,12.67,7.11,23.18,17,28.14-10.73-30.86-.87-44.91,8-51.11C335.76,358.36,327,368.8,328.38,383.24Z"/><path class="cls-19" d="M360,362.32s4.66-19-2.21-23.59-2,.84-.31,5S360,362.32,360,362.32Z"/><path class="cls-13" d="M360.05,362.42s-5.76-14.56-11.36-17.2-17-1-17-1,3.39,15.77,11.84,17.23A81.55,81.55,0,0,0,360.05,362.42Z"/><path class="cls-12" d="M360.05,362.42S346.24,349.6,337,347.13C337,347.13,358.43,361.27,360.05,362.42Z"/><path class="cls-12" d="M344.1,346.68l.89,4.86S343.37,348.88,344.1,346.68Z"/><path class="cls-12" d="M350.91,350s1.54,5,1.06,6.41S350.91,350,350.91,350Z"/><path class="cls-12" d="M344.33,351.5s-5.3.08-7.35,1C337,352.48,342,352.58,344.33,351.5Z"/><path class="cls-12" d="M351.31,355.76s-6.05.35-8,1.84C343.3,357.6,349.66,357.26,351.31,355.76Z"/><path class="cls-21" d="M124.07,214c2.5-.53,10.61-6.24,11.23-7.09,1-1.45.38-1.8.38-1.8,1.33-1.4.56-2.27.56-2.27,1.07-2-1.38-1.34-1.38-1.34.34-2.79-3.87-.3-5,.59-.61.47-3.56,2.12-3.56,2.12a2.56,2.56,0,0,1,.14-1.75c.34-.76,1.46-1.86,1.17-3.22-.19-.91-4,3.16-5,5.08a22.27,22.27,0,0,0-1.2,5.41l-14.24,4.7,1,7.75Z"/><path class="cls-22" d="M86,194.84c2.93,5.89,10,15.54,12.69,17.24s9.66.71,9.66.71L114,222s-13.43,4.35-17.66,3.23c-6.77-1.8-21.53-11.85-26.6-22-3.48-7,1.2-15.46,7.37-15C81.4,188.65,85.17,193.25,86,194.84Z"/><path class="cls-22" d="M105,211.72s6.7,7.08,7.66,12.15c0,0,2.79-.32,3.83-1.55,0,0-5.35-10.63-8.2-12.32A5,5,0,0,0,105,211.72Z"/><path class="cls-16" d="M89.32,401.62c-.19,1.44,29.38,1.72,29.46.8.25-2.63-1.19-6-2.89-6.63a11.57,11.57,0,0,0-3.65-.48,41.7,41.7,0,0,1-7.33-.39,11.21,11.21,0,0,1-3.79-1.51h0a4.57,4.57,0,0,1-2.18-3.34l-8.46.89S89.85,397.54,89.32,401.62Z"/><path class="cls-21" d="M90.65,392.22l-1.33-8.74,8.78-1.75.9,9.19C98.12,394,90.94,393.44,90.65,392.22Z"/><path class="cls-16" d="M23.11,380.45c-1.18.89,19.45,21.09,20.18,20.49,2.09-1.7,3.52-5.09,2.76-6.68a10.78,10.78,0,0,0-2.23-2.82,35.77,35.77,0,0,1-4.76-5.14,10.89,10.89,0,0,1-1.6-3.66h0a4.52,4.52,0,0,1,.88-3.86l-6.66-5.13S26.44,377.91,23.11,380.45Z"/><path class="cls-21" d="M30.88,374.67l5.41-7.11,7.52,4.72-6,7.15C34.88,381,30.2,375.74,30.88,374.67Z"/><path class="cls-15" d="M95.73,264.48s6.41,43.84,8.34,52.89c2.23,10.5-2.23,70.1-2.23,70.1H87.3l-5.53-59.84c-.61-3.77-9.25-15.75-11.4-18.95-8.63-12.83-26.67-36.48-17.06-53.9C65.1,233.4,95.73,264.48,95.73,264.48Z"/><path class="cls-7" d="M104.65,121.36v0l6.44,61,.64,6.21,5.24,49.7,2.17,1a19.23,19.23,0,0,0,21.36-3.24l-5.25-49.75-.65-6.19-6.44-61-9.35.88-6.83.64Z"/><path class="cls-1" d="M104.64,121.36c.25,2.44,5.71,3.93,12.21,3.32s11.55-3.09,11.31-5.53-5.71-3.93-12.2-3.32S104.4,118.91,104.64,121.36Z"/><path class="cls-7" d="M126.14,128a9.37,9.37,0,0,0,.41-1.36,11.49,11.49,0,0,0,.24-1.37,8.8,8.8,0,0,0-.16-3,5.64,5.64,0,0,0-3.63-4.1,10.69,10.69,0,0,0-4.11-.55,24.43,24.43,0,0,0-3.85.51,17.24,17.24,0,0,0-3.75,1.21,4,4,0,0,0-.94.61,1.44,1.44,0,0,0-.49.72,1.23,1.23,0,0,0,0,.82,1.09,1.09,0,0,0,.33.44,2.7,2.7,0,0,0,1.08.5,9.34,9.34,0,0,0,1,.17,37.61,37.61,0,0,0,7.59-.25,38.56,38.56,0,0,1-7.51-.75,6.41,6.41,0,0,1-.88-.27,2.1,2.1,0,0,1-.68-.39s0,0,0,0a.44.44,0,0,1,0,.25c0,.07,0,0,.14-.09a3.38,3.38,0,0,1,.74-.34,15.52,15.52,0,0,1,3.57-.63A24.92,24.92,0,0,1,119,120a9.36,9.36,0,0,1,3.38.79,3.69,3.69,0,0,1,1.21.92,2.45,2.45,0,0,1,.53,1.21,4.5,4.5,0,0,1-.06,1.58,6.38,6.38,0,0,1-.22.86,5.58,5.58,0,0,1-.29.76Z"/><path class="cls-23" d="M110.16,173.29l1.13,11c1.79.55,6.44.61,11.85.1s10.08-1.48,11.68-2.36l-1.15-11c-1.64.87-6.2,1.82-11.65,2.34S111.93,173.84,110.16,173.29Z"/><polygon class="cls-5" points="116.61 173.94 121.99 175.07 127.05 172.95 139.19 193.98 131.96 192.35 128.24 198.57 122.64 181.44 120.58 199.29 115.67 193.9 108.91 196.85 116.61 173.94"/><path class="cls-9" d="M113.68,173.59c-.1-1-2.42-2.09-2.21-3s2.82-1,3.32-1.84-.7-3,0-3.7,2.88.78,3.8.39,1.27-2.86,2.29-3,1.88,2.27,2.84,2.48,2.79-1.59,3.65-1.1.12,2.9.78,3.62,3.22.29,3.63,1.18-1.67,2.39-1.57,3.38,2.42,2.1,2.21,3-2.81,1-3.31,1.84.7,3.06-.05,3.7-2.87-.78-3.8-.39-1.26,2.87-2.28,3-1.89-2.27-2.84-2.47-2.79,1.58-3.65,1.09-.12-2.89-.79-3.61-3.21-.29-3.62-1.19S113.78,174.59,113.68,173.59Z"/><path class="cls-2" d="M115.83,173.39a6,6,0,0,1,5.54-6.52,6.11,6.11,0,0,1,6.74,5.36,6,6,0,0,1-5.54,6.52A6.12,6.12,0,0,1,115.83,173.39Z"/><path class="cls-16" d="M86.07,260.88s-15.2,61.59-18.21,71.21C64.73,342.09,43,378.84,43,378.84l-12.09-9.65S43.83,338.46,45.84,334s-2.22-44.55-1.59-63.76S86.07,260.88,86.07,260.88Z"/><path class="cls-7" d="M59,191.5c5.27-5.84,16.88-8.55,23.72-1.2,9.43,10.13,13.59,63.2,13.1,76.47,0,0-36.48.71-53.74-1.54C42,265.23,49.13,202.36,59,191.5Z"/><path class="cls-21" d="M85.33,161.24c.17.36.43.95.7,1.59a6.26,6.26,0,0,0,3.15,2.95.53.53,0,0,1,.31.33c.08.34-.38,1-.9,1.54a3.39,3.39,0,0,0-.75,3.12c.56,2.17,1.24,5.57.17,6.27a49.87,49.87,0,0,1-6.94,2.85l-1.45,8.69s-1.9,2.83-10.28,1a8.69,8.69,0,0,1-4-1.76l1.09-8.52s-8.12-8.32-3.89-16.42S81.37,152.74,85.33,161.24Z"/><path class="cls-1" d="M65.13,187.27s9.59,4.1,15,.89l.74.53s-7,4.43-16.87-.93A2.37,2.37,0,0,1,65.13,187.27Z"/><path class="cls-21" d="M110.41,214.86c2.49-.58,10.46-6.47,11.06-7.33,1-1.48.34-1.81.34-1.81,1.29-1.43.51-2.28.51-2.28,1-2-1.41-1.31-1.41-1.31.26-2.8-3.88-.21-5,.7-.59.49-3.5,2.19-3.5,2.19a2.53,2.53,0,0,1,.1-1.75c.32-.76,1.41-1.88,1.09-3.24-.21-.91-3.88,3.25-4.82,5.18a22.27,22.27,0,0,0-1.09,5.44l-14.11,5,1.18,7.72Z"/><path class="cls-13" d="M71.86,196.58c3.07,5.82,10.38,15.31,13.09,16.95,2.87,1.72,9.68.49,9.68.49l6,9.12S87.25,227.79,83,226.76c-6.82-1.65-21.82-11.36-27.12-21.41-3.65-6.9.83-15.49,7-15.12C67.15,190.48,71,195,71.86,196.58Z"/><path class="cls-13" d="M91.33,213s6.87,6.94,7.94,12c0,0,2.79-.38,3.8-1.63,0,0-5.6-10.51-8.49-12.14A5,5,0,0,0,91.33,213Z"/><path class="cls-15" d="M67,162.65c-.53.93,1.8,4.87,1.08,5.53-1-.85-3-1.92-3.89-.44-.65,1.15-.18,3.68,3.09,4.54,1.41,3.09-.63,6.36-1,8.25,0,0-10.79-11.42-10-20.63S70.72,145,74.33,145.6l-1.84,2s11.22-5.06,16.27,2.66a11.18,11.18,0,0,1-2,.05s6,2.92,5.87,8.15c0,0-3.66-.69-5.84,1.1-2,1.6-12.12,1.85-15.69.92a3.05,3.05,0,0,0-2.51.44A5.23,5.23,0,0,0,67,162.65Z"/><path class="cls-8" d="M46.11,156.47c.65.6,5.66-3.49,11.19-9.14s9.48-10.7,8.83-11.3-5.66,3.49-11.19,9.14S45.46,155.87,46.11,156.47Z"/><path class="cls-19" d="M68.69,157a85.06,85.06,0,0,1-11.77,9.84L46.11,156.47l20-20.44,11,10.06A55.54,55.54,0,0,1,68.69,157Z"/><path class="cls-9" d="M43.16,176.88l2.06-2.6h.36l2.29,2.41a.24.24,0,0,1,0,.33.27.27,0,0,1-.15.05.23.23,0,0,1-.19-.07l-.46-.49.37.56a.23.23,0,0,1-.07.32l-.12,0a.23.23,0,0,1-.21-.1l-.37-.57.27.62a.23.23,0,0,1-.13.3l-.08,0a.24.24,0,0,1-.23-.14l-.27-.62.16.65a.23.23,0,0,1-.18.27h0a.22.22,0,0,1-.24-.18l-.16-.65,0,.67a.23.23,0,0,1-.23.23.22.22,0,0,1-.24-.21l0-.67-.09.66a.23.23,0,0,1-.22.2h0a.23.23,0,0,1-.2-.26l.09-.66-.21.64a.25.25,0,0,1-.21.16h-.09a.23.23,0,0,1-.15-.29l.21-.64-.32.6a.24.24,0,0,1-.2.12l-.12,0a.23.23,0,0,1-.1-.31l.32-.6-.42.54a.23.23,0,0,1-.18.08.21.21,0,0,1-.15,0A.24.24,0,0,1,43.16,176.88Z"/><path class="cls-9" d="M44.22,160.26a.51.51,0,0,1,0,.13l.66,14,.94,0-.66-14C45.14,159.48,44.15,160,44.22,160.26Z"/><path class="cls-9" d="M44.46,174.38a.93.93,0,0,1,.9-.95.94.94,0,0,1,1,.87.93.93,0,0,1-.9.95A.94.94,0,0,1,44.46,174.38Z"/><polygon class="cls-1" points="62.79 152.08 36.1 166.48 35.29 165.73 37.08 163.92 37.2 163.61 37.56 162.68 48.06 140.05 73.49 127.68 74.39 126.24 75.2 126.99 62.79 152.08"/><polygon class="cls-16" points="47.26 139.3 35.3 165.73 61.98 151.33 74.39 126.24 47.26 139.3"/></svg>