<svg xmlns="http://www.w3.org/2000/svg" xmlns:xlink="http://www.w3.org/1999/xlink" viewBox="0 0 5876 4299.33"><defs><style>.cls-1,.cls-11,.cls-19,.cls-29,.cls-5,.cls-7{fill:none;}.cls-2{fill:#70b55b;}.cls-3{fill:#eaf4fe;}.cls-4{fill:#accc54;}.cls-19,.cls-5{stroke:#629629;}.cls-11,.cls-19,.cls-29,.cls-5,.cls-7{stroke-miterlimit:10;}.cls-5{stroke-width:4.24px;}.cls-6{clip-path:url(#clip-path);}.cls-7{stroke:#59a43c;stroke-width:3.4px;}.cls-8{fill:#59a43c;}.cls-9{fill:#f75751;}.cls-10{fill:#fe7972;}.cls-11{stroke:#fdb9c2;stroke-width:1.7px;}.cls-12{fill:#fdb9c2;}.cls-13{fill:#f7b03e;}.cls-14{fill:#fd2227;}.cls-15{fill:#202954;}.cls-16{fill:#f7b68b;}.cls-17{fill:#fff;}.cls-18{fill:#dd000b;}.cls-19{stroke-width:3.71px;}.cls-20{fill:#c5e1f9;}.cls-21{fill:#e4efff;}.cls-22{fill:#0450cf;}.cls-23{fill:#0561fc;}.cls-24{fill:#103754;}.cls-25{fill:#174f78;}.cls-26{fill:#ffab01;}.cls-27{fill:#fec12f;}.cls-28{fill:#30363d;}.cls-29{stroke:#accc54;stroke-width:1.28px;}</style><clipPath id="clip-path"><path class="cls-1" d="M3565.85,2042.44s-187.72-356.61-15.57-567.23,512.89-297.43,512.89-297.43,201.15,420.2-16.31,629.05S3621,1992.56,3565.85,2042.44Z"/></clipPath></defs><g id="Layer_2" data-name="Layer 2"><path class="cls-2" d="M4786.41,1626.14s94.2-11,154.63-69.54c21.93-21.25,39.57-74,14.62-94.17s-73-9.4-104.87,21.43C4790.28,1542.3,4786.41,1626.14,4786.41,1626.14Z"/><path class="cls-2" d="M4677.58,1717s47.83-60,40.1-127.94c-2.83-24.64-31.91-65-61.81-62.34s-50.55,36.15-46.45,72C4617.17,1666.72,4677.58,1717,4677.58,1717Z"/><path class="cls-2" d="M4576.37,1842.93s16-72-22.55-131.29c-14-21.47-59.17-47.82-85.25-34.62s-29.41,51.23-9.15,82.47C4497.94,1818.76,4576.37,1842.93,4576.37,1842.93Z"/><path class="cls-2" d="M4676.5,1721.16s57.26,45.39,134.15,53.2c27.86,2.85,78.33-9.69,81-31.29,2.86-21.55-30.31-42.59-70.82-46.73C4744,1688.51,4676.5,1721.16,4676.5,1721.16Z"/><path class="cls-2" d="M4567.4,1837.05s57,47.66,133.89,55.47c27.86,2.87,78.31-10.79,81.33-33.58s-30.07-44.88-70.6-49C4635.15,1802.12,4567.4,1837.05,4567.4,1837.05Z"/><path class="cls-2" d="M4452.57,2018.35s42.2,46.18,100.88,52.13c21.27,2.16,60.42-12.57,63.39-35.38s-21.7-44.06-52.6-47.19C4505.51,1981.92,4452.57,2018.35,4452.57,2018.35Z"/><path class="cls-2" d="M4444.87,2013.55s17.82-54.42-5-106.09c-8.29-18.72-38.85-45.47-58.89-38.54s-25.82,36.3-13.76,63.53C4390,1984.12,4444.87,2013.55,4444.87,2013.55Z"/><path class="cls-2" d="M3792,2627.81l9.34-7.89-4.68,3.95,4.64-4c1.08,1,26.7,23.53,80.15,16.34,100.48-13.53,275.63-125.86,539.29-584.23,139.17-241.93,260.25-344,340.37-411.54,20.57-17.38,38.34-32.36,52-46.29l9.75,7.49c-14.09,14.3-32.06,29.49-52.89,47-79.46,67-199.57,168.32-337.75,408.5-266.67,463.57-446.07,577-549.65,590.43C3822.72,2655.43,3793.24,2628.94,3792,2627.81Z"/><path class="cls-3" d="M1506,3578.47c281.29,47,668.05,42,1101,216,810,325.47,1890.4,398.21,2348.23-97.8s125.58-920-1006.52-979.75c-831.12-43.81-1143.62,151.73-1620.92,74.71-888.6-143.37-1485.77,36.66-1506.91,327.85S1132.06,3516,1506,3578.47Z"/><path class="cls-2" d="M720.86,3188c-21.1-44.25,8.52-81.44,117.15-100.36,118.55-20.65,230.53-4.83,322.09,22.95-213.42-135.44-461-325.15-227.86-344.68,72.72-6.08,182.53,39.18,303.93,109.46-133-143.21-204.82-260.55-120.27-281.45,78.51-19.41,232.85,97.48,396,252.23-91.45-129.26-143-241.82-97.89-294.3,36.87-42.81,110.25,7.39,193.37,99.92-.87-80.71,27.8-129.15,88.78-118.81,57.33,9.7,100.62,103.52,129.85,215.84,61.76-173.22,213.66-180,227,11.81,8.24,118.58-52.81,262.06-137.57,459.35Z"/><path class="cls-4" d="M3226.15,1123.9c52.2,123.43,156.74,169.2,305.46,166.11,112.34-99.71,130.17-218.73,39.18-339.62C3480.28,830.51,3311.42,734,3167.37,702.94,3161.13,829,3174.48,1001.83,3226.15,1123.9Z"/><path class="cls-5" d="M3212.52,759.22c125.61,153.57,264.29,392.23,350.5,585.68,28.76,64.48,291.73,799.21-109.88,1242.76"/><path class="cls-5" d="M3307.45,887.91c6.24-33.54,10-72.74,11.29-105.38"/><path class="cls-5" d="M3366.06,978c13.09-40.13,28.65-80.28,34.36-119.56"/><path class="cls-5" d="M3425,1073.71c30.35-64.59,51.58-135.38,62-198.21"/><path class="cls-5" d="M3470.1,1151.05c37.24-59.9,65.08-120.6,83.86-180.24"/><path class="cls-5" d="M3505.11,1227.57a906.4,906.4,0,0,0,65.83-95.49"/><path class="cls-5" d="M3297.38,870.79q-55.49-14.22-111.07-28.76"/><path class="cls-5" d="M3356.35,967.8c-56.7-12.44-106.41-25.65-163.27-38.66"/><path class="cls-5" d="M3412.33,1058.68c-70.14-12.68-134.23-26.5-204.5-40.07"/><path class="cls-5" d="M3463.44,1142.21q-107.36-15.12-214.68-31.66"/><path class="cls-5" d="M3501.14,1219.6c-61.33-6.2-124.42-12.79-185.65-19.68"/><path class="cls-4" d="M3565.85,2042.44s-187.72-356.61-15.57-567.23,512.89-297.43,512.89-297.43,201.15,420.2-16.31,629.05S3621,1992.56,3565.85,2042.44Z"/><path class="cls-5" d="M4063.17,1177.78s-707.81,811.15-641,1737.15"/><g class="cls-6"><path class="cls-5" d="M3934.86,1183.35c14.55,32.28,32.66,61.34,54.8,79.64"/><path class="cls-5" d="M3865.34,1214c19.62,49.26,46.54,98.42,81.45,124.21"/><path class="cls-5" d="M3792.72,1251.1c20.56,59.06,52.87,126,99.66,157.16"/><path class="cls-5" d="M3727.27,1298.08c22.14,63.92,60.43,146.37,118.26,181.25"/><path class="cls-5" d="M3660.93,1345.09c22.69,66.45,67.81,169.34,138.59,208.26"/><path class="cls-5" d="M3597.81,1402.49c23.67,66,76.08,184.86,157.86,226"/><path class="cls-5" d="M3535.89,1464c25.46,64.62,87.87,199.21,180.16,241.75"/><path class="cls-5" d="M3485,1554c32,70.11,97.31,188.72,187.16,226.86"/><path class="cls-5" d="M3458.89,1682.78c41.19,69.13,102.75,150.4,176.65,179.37"/><path class="cls-5" d="M3465.82,1833.43c39.91,46.58,87.16,88.4,138,106.87"/><path class="cls-5" d="M4111.82,1231.25c-37.52,6.37-76.52,15.5-113.28,28.49"/><path class="cls-5" d="M4132.12,1300.17c-60.44,1-130.34,9-192.07,33.73"/><path class="cls-5" d="M4152.39,1383.8c-74.15-10.66-177.45-14.41-263.77,23.8"/><path class="cls-5" d="M4169.57,1479.91c-73.18-23.84-213.31-56-326.15-1.67"/><path class="cls-5" d="M4188.11,1592.22s-223.9-126.26-390.68-40"/><path class="cls-5" d="M4156.87,1686s-229.63-152.55-402.86-57.14"/><path class="cls-5" d="M4125.62,1779.73S3892.35,1602,3712.7,1706.5"/><path class="cls-5" d="M4048.5,1838.27c-77.07-53.56-237.41-141-372.94-58.24"/><path class="cls-5" d="M3985,1905.49c-85.38-57.5-226.46-123.47-349.92-44.82"/><path class="cls-5" d="M3901.39,1955.66c-84.28-50.88-197.11-87.63-300.9-18.88"/></g><path class="cls-7" d="M4271.88,1307.12S3924.49,1641,3846.05,2175.29"/><path class="cls-2" d="M4119.47,1723.6c-67.41,32.06-112.62,81.24-121.53,125.72,47,17.9,118.34,11.62,185.79-20.45s112.61-81.25,121.54-125.73C4258.3,1685.25,4186.91,1691.54,4119.47,1723.6Z"/><path class="cls-7" d="M4246.66,1722.64c-90.5,18.64-222.71,77.92-350.29,229.42"/><path class="cls-2" d="M3958.79,1420.9c41,109,31.94,216.43-15.74,280.63-81.75-26.26-161.73-107.5-202.74-216.58s-31.95-216.42,15.76-280.61C3837.76,1230.57,3917.78,1311.83,3958.79,1420.9Z"/><path class="cls-7" d="M3801.24,1288.55c49,90.28,177.88,373.5,131.67,559"/><path class="cls-8" d="M4224.18,1269.24c7.81-49,58-83.27,112.08-76.52s91.55,51.92,83.72,100.92-58,83.25-112.08,76.52S4216.33,1318.23,4224.18,1269.24Z"/><path class="cls-9" d="M4264.07,1253.4c-47.67-59.88-117.91-206.34,39.91-337.46,170-141.21,415.06-74.34,267.75,114.14s-59.6-133.59,140.6-65.7c167.12,56.66,134.71,195.6-28.1,243.39s23.3-83.06,100.71-22.37,10.3,187.54-153.69,206.17C4463.33,1410.65,4329.45,1335.53,4264.07,1253.4Z"/><path class="cls-10" d="M4309.34,911.62c34.28,49.43,81,100,138.33,146.89,123.53,101.11,262.57,158,361.41,156a84.88,84.88,0,0,0-24.14-29.12,72.57,72.57,0,0,0-24.34-12.35c91.57-61.58,88-162.48-48.27-208.67-38.35-13-72.51-11.67-101.75-2.41C4655,829.2,4456.42,794.27,4309.34,911.62Z"/><path class="cls-11" d="M4444.2,1257.21s73.46-81.33,202.52-132.54"/><path class="cls-11" d="M4383.76,1207.91s114.61-108.68,139.87-184.42"/><line class="cls-11" x1="4417.28" y1="1228.34" x2="4608.31" y2="1052.62"/><path class="cls-12" d="M4639.71,1119.17c.82-5,6.07-8.52,11.77-7.81s9.64,5.35,8.84,10.37-6.07,8.53-11.75,7.81S4638.9,1124.19,4639.71,1119.17Z"/><path class="cls-12" d="M4598.21,1050.19c.68-4.41,5.29-7.47,10.26-6.85s8.45,4.7,7.75,9.1-5.3,7.45-10.28,6.84S4597.49,1054.58,4598.21,1050.19Z"/><path class="cls-12" d="M4511.46,1017.34c.81-5,6.07-8.53,11.76-7.82s9.65,5.35,8.84,10.39-6.05,8.52-11.74,7.81S4510.67,1022.36,4511.46,1017.34Z"/><path class="cls-13" d="M4631.25,1391.57c78.16-8.87,134.26-42.36,163.25-81.53-12.25-25.26-34.81-52.35-75.1-65.14-107.49-34.07-257.41,81.82-252.08,81.16,121.42-15,68.56-137.46,34.41-181.23-26.06-33.38-72.21-33.73-117.43-21.81,35.07-30.64,57.47-72.51,51.09-137-6.62-67.36-42-95-84.38-102.91a346.47,346.47,0,0,0-47,32.88c-157.82,131.12-87.58,277.58-39.91,337.46C4329.45,1335.53,4463.33,1410.65,4631.25,1391.57Z"/><path class="cls-14" d="M1565.41,1344.05s-147.38,42.73-265.8,180.86,13.58,220.95,286.7,533.9,388,867.79,388,867.79L2702.65,2479s-471.46-863.8-559-1020.06S1742.43,1266.78,1565.41,1344.05Z"/><path class="cls-15" d="M1360.71,1233.55S1027,1203.39,1029,1076.44s167.58-167.91,82.54-275.39-221.21-195,46-244.06,120.67-282.4,308.84-278.27,209.78,112.7,385.05,129.74S2256.76,320,2340.31,522.65s55.4,387.23-54.71,393.37,15.4,99.16,39.73,168.54-68.38,318.49-501.28,137.77S1565.72,1241.62,1360.71,1233.55Z"/><path class="cls-16" d="M1610.79,1179.36s29.37,63.8-27.89,123.78-167.82,94.7-39.89,171.27c162.84,97.5,319.84-35.93,319.84-35.93s-110.73-67.59-65.49-151.71,193.68-148.94,65-135.69S1603.32,1113.93,1610.79,1179.36Z"/><path class="cls-16" d="M1434.62,569.51s-215.84,291.67-10.24,485.19,184.1,198.63,324.45,188.86,270.65-168.23,301.81-329.2C2080.36,761,1989,786.8,1800.25,718.93s-215.93-81.68-215.93-81.68,21.12,63.71,145.6,112.4S1517.07,829.65,1434.62,569.51Z"/><path class="cls-17" d="M1723.31,1004.71q69-19.1,137.23-34.42c19.53,77.42-34.9,157.69-127.21,183.29-90.38,25-184.93-11.16-220.9-81.59C1580.05,1047.6,1650.35,1024.94,1723.31,1004.71Z"/><path class="cls-18" d="M1255.07,1598.38s-51.91,562.87,84.66,719.34,133.35-177.07,201.83-142.14,21.42-355.1-41.86-446.3S1387.77,1551.25,1255.07,1598.38Z"/><path class="cls-4" d="M2459.53,1179.38s105.26,11.67,388.91,190.5"/><path class="cls-4" d="M2632.44,1315.13c-16.33-5.47-31.3-11.35-45.07-17.5-6.87-3.1-13.46-6.27-19.69-9.48-6.33-3-12.35-5.79-18.07-8.81a299,299,0,0,1-30.85-18.54,196.06,196.06,0,0,1-24.18-17.61c-7.17-6.33-12.76-11.38-17.71-17.13a107,107,0,0,1-6.66-8.49,77.26,77.26,0,0,1-4.87-7.92,75.1,75.1,0,0,1-3.64-7.9c-.46-1.31-.93-2.66-1.31-3.94s-.42-2.48-.6-3.72c-.73-5-1.21-10-.2-14.78a21.49,21.49,0,0,1,7.08-13.57,58.8,58.8,0,0,1,7.35-5.61,56.85,56.85,0,0,1,9.6-4.71,100.23,100.23,0,0,1,25.05-5.87c4.76-.59,9.85-.94,15.27-1.08a152,152,0,0,1,16.27.6,281.75,281.75,0,0,1,36.68,5.52,386.66,386.66,0,0,1,39.6,12.52c6.88,2.62,14.1,5.35,21.05,8.63s13.81,6.92,20.85,10.78c14.06,7.73,28.5,16.55,43,26.44,11.79,8.2,25.12,19.33,39,31.87,7,6.28,14.05,12.93,21.12,19.82s14.21,13.92,20.76,21.5c26.73,29.85,51.26,60.9,66.19,83.67-29.91-4.28-68.71-12-107.33-21.91l-14.52-3.85c-4.87-1.19-9.75-2.44-14.57-3.62-9.69-2.44-19.22-5-28.47-7.71A512.67,512.67,0,0,1,2632.44,1315.13Z"/><path class="cls-4" d="M2584.48,1439.12s332.64,12.27,346.31,13.64"/><path class="cls-4" d="M2759.06,1505.17c-111.73,14.28-178.45-27.32-174.53-66.1,1.47-38.9,72.8-75,180.85-52.72,22.8,4,54.62,14.56,85.35,27.12s60.51,27.11,80.09,39.21a741.68,741.68,0,0,1-83.21,32.2C2816.88,1494.74,2785.37,1502.65,2759.06,1505.17Z"/><line class="cls-4" x1="2857.91" y1="1187.16" x2="2961.56" y2="1450.92"/><path class="cls-4" d="M2847.49,1342c-53.12-78.75-31.7-143.55,10.51-154.79,41.5-13.11,103.8,27.34,116.81,115.8,6.79,36.08-1.59,108.44-13.18,147.91C2924.61,1426.36,2871.3,1380.52,2847.49,1342Z"/><path class="cls-4" d="M3045.73,1171.55s108.62,192,9.39,371.94"/><path class="cls-4" d="M3029.38,1364.08c-3.25-13.34-6-25.88-8.41-37.8-2.55-11.9-4.43-23.19-6-33.87-3.09-21.36-4.12-40.43-3-57,2.28-33,13.57-56.07,33.83-63.88,19.5-9,50.42,1.62,77,33.62,13.15,16,25.27,37.25,33.18,63.45s11.77,57.3,8,91.45A218,218,0,0,1,3153.2,1409a282,282,0,0,1-25,54.13c-10.65,17.51-22.66,33.88-35.65,47.5-3.08,3.49-6.36,6.73-9.63,9.78s-6.39,6-9.48,8.78c-6.42,5.46-12.63,10.19-18.24,14.29-.1-6.52-.2-13.48-.31-20.71-.47-7.35-.52-14.85-1.2-22.61-1.08-15.52-3.16-31.75-5.62-47.67-2.77-16-6-31.72-9.35-46.61C3035.23,1391,3031.82,1376.92,3029.38,1364.08Z"/><path class="cls-4" d="M2687.39,1589s196.05-36.83,368.29-6.23"/><path class="cls-4" d="M2877.9,1630.38c-13.86,2.43-27.06,4.71-39.56,5.84a348.52,348.52,0,0,1-35.43,2.19c-22.28.12-41.79-1.93-58.26-6.16-32.89-8.2-53.6-24.17-57.22-43.39-4.88-19,9.94-41.62,42.39-58.21,16.2-8.13,36.74-15,61.12-18.6,12.15-2,25.33-2.83,39.27-3.19a337.1,337.1,0,0,1,44.21,2.59c25.45,2.25,61.67,11.89,95.79,25.26,8.55,3.45,16.95,6.9,25.07,10.6,8.11,3.92,15.93,7.87,23.24,11.77,7.35,3.74,14.16,8.11,20.41,12.08s11.85,7.87,16.77,11.5c-6.21,1.94-12.81,3.93-19.72,5.92s-14.1,3.79-21.6,6.18L2968,1608.29q-6,1.62-11.82,3.25l-11.81,3.38c-7.84,2.25-15.56,4.13-23.18,6.12s-15.08,3.8-22.28,5.3S2884.6,1629.39,2877.9,1630.38Z"/><path class="cls-4" d="M2702.05,1723.87s115.2-76.71,420.26,43"/><path class="cls-4" d="M2908.17,1766.93q-11.91,0-23-.62c-1.84-.13-3.68-.25-5.51-.33s-3.54,0-5.31,0c-3.52-.07-7-.18-10.39-.34-13.68-1-25.85-1.1-37.48-2.45a436.69,436.69,0,0,1-57.83-7.49c-15.93-3.1-29.21-7.32-40.42-12.48-11.05-5.07-19.73-11.51-26.16-19.4-7-7.58-7.28-19.46.08-32.26s22.46-26,44.51-36.37c5.48-2.48,11.39-4.89,17.71-7.18,6.25-2,12.85-3.81,19.86-5.5,3.47-.79,7.13-1.78,10.71-2.3s7.28-1.13,11.08-1.6,7.63-.93,11.56-1.35a118.85,118.85,0,0,1,11.91-.78c8-.21,16.28-.18,24.79,0,2.12.09,4.24.16,6.42.24l6.33.62q6.42.66,12.94,1.49c4.36.56,8.82,1.2,13.26,1.84,2.21.37,4.48.67,6.7,1.1s4.37,1,6.58,1.48q13.3,3,26.94,6.85c7.64,1.78,15.53,4.82,24,8s17.33,7,26.4,11c8.88,4.32,17.86,9.17,26.94,14.13s18.23,9.93,26.74,15.85c8.66,5.7,17.13,11.51,25.27,17.27,4,2.92,8,5.78,11.95,8.67s7.5,6,11.13,9c14.32,11.93,26.81,23.18,36.46,32.86-14.86.72-31.94,1.08-50,1l-13.76-.15-14.19.28q-14.34.19-28.81.07c-4.81,0-9.57-.2-14.39-.16l-14.4.24c-9.51.12-18.85,0-28-.21s-17.94.17-26.41-.1C2923.93,1767.76,2915.78,1766.91,2908.17,1766.93Z"/><path class="cls-4" d="M3266.55,1348.4c-42.28,65-110.72,400.39-110.72,400.39"/><path class="cls-4" d="M3134.86,1538.9c6.13-67.75,27.19-120.41,53.7-154.21,13.21-16.87,27.93-29.06,42-35.45a57.31,57.31,0,0,1,10.23-3.6,40.08,40.08,0,0,1,9.75-1.36,30.76,30.76,0,0,1,16,4.19,42.51,42.51,0,0,1,12.62,10,69.47,69.47,0,0,1,5.13,6.58,70.42,70.42,0,0,1,4.47,7.79c5.49,11.16,9,25.74,9.93,44,1.79,36.49-6.75,87.34-32.27,147.61-9.85,25-28.75,59.59-49.51,93.79s-43.36,67.88-61.05,90.54C3140.52,1695.4,3126.89,1604,3134.86,1538.9Z"/><path class="cls-4" d="M3411.71,1618.12s-195.38,150.77-280,335.81"/><path class="cls-4" d="M3194.16,1742c2.45-3.92,5-7.77,7.49-11.56s5.27-7.31,7.91-10.86c5.33-7.07,10.66-13.9,16.08-20.34,11.16-12.61,22.11-24.24,33.49-34.13,22.38-20.08,45-34.45,65.31-44.05,41-19,73.87-18.35,87.26-2.89,14.71,14.53,12.33,42.14-6.27,76.21-9.14,17.23-22.68,35.82-39.83,55.85-8.82,9.82-18.07,20.3-28.94,30.67-10.29,10.69-22.37,21.21-34.67,32.4-20.53,18.49-52,43-84,68.51-7.9,6.38-15.93,12.81-23.86,19.18-7.58,6.52-15.16,12.91-22.65,19.08-7.72,6.07-14.25,12.3-20.91,18s-12.89,11.09-18.78,15.87c-.1-6.9,0-14.46.32-22.57s.61-16.92,2.06-25.67c1.26-8.85,2.76-18.14,4.51-27.69.8-4.83,2-9.47,3.23-14.27l3.84-14.42q2.1-7.33,4.21-14.6c1.54-4.82,3.32-9.54,5.07-14.3,3.55-9.48,7.1-19.1,11.31-28.18s8.64-17.9,13.17-26.41S3189.21,1749.54,3194.16,1742Z"/><path class="cls-4" d="M2698.54,1838.6s203.68-42.18,406.82,61.28"/><path class="cls-4" d="M2901.69,1897.23c-7.7.11-15.06,0-22.22-.31-7.21-.1-14.2-.13-20.93-.51-3.35-.18-6.68-.39-9.94-.57s-6.48-.28-9.65-.46c-6.33-.36-12.43-1.09-18.37-1.59q-35.55-3.35-61.58-10.91c-34.53-9.85-56.43-25.17-60.43-44.36-2.75-9.39.57-20.1,9.54-30.31s23.72-20,43.84-27.56,45.54-12.53,75-13.57c7.37-.15,15,.06,22.87.39q5.86.24,11.91.65c4,.45,8.11.92,12.22,1.46,8.24,1.14,16.67,2.29,25.21,4.05s17.21,4.06,26,6.47a191.71,191.71,0,0,1,23.49,7.64c8.27,3.2,17.07,6.42,25.88,10.73s17.75,9,26.7,13.86a151.86,151.86,0,0,1,13.19,7.87c4.27,2.79,8.54,5.62,12.89,8.45,4.15,2.83,8.36,5.68,12.54,8.57s8,6.16,11.83,9.2c7.61,6.24,14.88,12.41,21.62,18.38a379.79,379.79,0,0,1,32,35c-14.56-.31-30.93-1.14-48.08-2.08-8.78-.07-17.73-.23-26.73-.45-4.47-.16-9-.31-13.47-.44l-13.75.15c-9.14.09-18.17,0-27-.12-9.05.34-17.9.49-26.45.49-8.5-.24-17,.32-25.07.25S2909.13,1897.19,2901.69,1897.23Z"/><path class="cls-19" d="M2502.15,1171.36s453.16,198.11,581.46,453.32c108.65,216.13,18.48,283.38-3,481.26-2.84,26.33-29.9,168.9,98.27,351.74"/><path class="cls-19" d="M2873.32,1189.49s49.75,218.82,111.3,301.68"/><path class="cls-19" d="M2590.46,1439.32s267.06-31.82,380.78,33.38"/><path class="cls-19" d="M3060,1175.43s97,217.8-17.47,383.53"/><path class="cls-19" d="M2694.5,1587.6s166.51-91.58,364.32-4.16"/><path class="cls-19" d="M3263.61,1354.86s-101.33,294.37-129.28,498.92"/><path class="cls-19" d="M2701.69,1716.07c79.13-66,404.08-11.63,433,77.32"/><path class="cls-19" d="M3392.2,1629.66S3119.7,1867,3080.76,2099.87"/><path class="cls-19" d="M2719.67,1821.54s269.94-50.72,400.75,97.78"/><path class="cls-4" d="M2418.74,1506.91l70.64-42.56c-17.19-58.87-40.45-113.55-68.57-162a775.19,775.19,0,0,0-167.22,65.68c-261.56,140.45-223.19,566.45,151,695.79,79.74-92.34,125.9-243.49,115.91-417.63a820.5,820.5,0,0,0-18.29-131.64Z"/><path class="cls-19" d="M2420.81,1302.37s-320.59,349.13-41.21,729.35c7.85,10.7,95.94,119.41,245.59,185.63"/><line class="cls-19" x1="2292.34" y1="1348.52" x2="2336.96" y2="1429.44"/><line class="cls-19" x1="2208.92" y1="1398.77" x2="2295.6" y2="1523.13"/><line class="cls-19" x1="2143.73" y1="1467.82" x2="2271" y2="1621.5"/><line class="cls-19" x1="2097.05" y1="1568.45" x2="2265.74" y2="1715.48"/><line class="cls-19" x1="2086.99" y1="1668.4" x2="2272.72" y2="1795.5"/><line class="cls-19" x1="2109.03" y1="1786.73" x2="2303.92" y2="1897.22"/><line class="cls-19" x1="2169.35" y1="1898.68" x2="2350.71" y2="1988.53"/><line class="cls-19" x1="2462.64" y1="1390.07" x2="2336.39" y2="1426.07"/><line class="cls-19" x1="2295.6" y1="1523.13" x2="2486.94" y2="1455.98"/><line class="cls-19" x1="2271" y1="1621.5" x2="2509.04" y2="1554.89"/><line class="cls-19" x1="2265.74" y1="1715.48" x2="2521.51" y2="1657.15"/><line class="cls-19" x1="2272.72" y1="1795.5" x2="2519.9" y2="1746.94"/><line class="cls-19" x1="2303.92" y1="1897.22" x2="2505.36" y2="1851.01"/><line class="cls-19" x1="2350.71" y1="1988.53" x2="2472.57" y2="1949.42"/><polygon class="cls-20" points="4286.57 3110.59 3274.68 3550.07 2967.02 2084.96 4286.57 1513.93 4286.57 3110.59"/><polygon class="cls-20" points="1992.52 3110.59 3004.46 3550.07 3374.45 2112.23 1992.52 1513.93 1992.52 3110.59"/><polygon class="cls-21" points="4374.97 1836.49 4254.81 1594.12 4355.68 1555.15 4543.38 1678.94 4374.97 1836.49"/><polygon class="cls-21" points="1900.73 1836.49 2020.87 1594.12 1920.03 1555.15 1732.3 1678.94 1900.73 1836.49"/><polygon class="cls-21" points="4355.37 3025.47 3282.77 3430 2956.66 2081.45 4355.37 1555.83 4355.37 3025.47"/><polygon class="cls-21" points="1923.72 3025.47 2996.36 3430 3388.55 2106.53 1923.72 1555.83 1923.72 3025.47"/><path class="cls-22" d="M3308,2081.2c-18.12,16.19-43.18,26.28-71,26.28h-194.1c-27.82,0-52.89-10.09-71-26.28H2942.7V3603.13c0,48.86,44.85,88.44,100.19,88.44H3237c55.36,0,100.15-39.58,100.15-88.44V2081.2Z"/><polygon class="cls-23" points="4564.03 3227.96 3307.35 3663.23 3307.35 2081.84 4564.03 1646.55 4564.03 3227.96"/><polygon class="cls-23" points="1715.09 3227.96 2971.77 3663.23 2971.77 2081.84 1715.09 1646.55 1715.09 3227.96"/><polygon class="cls-24" points="3616.7 2362.06 3532.11 2349.33 3447.5 2410.09 3447.5 2029.23 3532.11 1998.41 3616.7 1974.41 3616.7 2362.06"/><polygon class="cls-25" points="3447.5 2029.23 3348.47 1979.14 3506.14 1915.11 3616.7 1974.41 3447.5 2029.23"/><path class="cls-26" d="M4760,2067.81,3846.13,3411.15c22.76,8.5,48.49,3.41,63.22-12.5l890.24-1309.42Z"/><path class="cls-27" d="M4893.84,2140.1l-94.25-50.87L3909.35,3398.65h0a.39.39,0,0,0-.1.35l.28-.31c-10.66,20.93-1.09,46.75,23,59.84,24.27,13,54.55,8.71,70.75-9.09,0,.1-.13.26-.13.49a.52.52,0,0,1,.26-.32l0-.07Z"/><path class="cls-26" d="M4003.49,3449.54c-9.32,18.88-2.75,41.46,16.11,55.32l913.88-1343.45-39.64-21.31Z"/><path class="cls-3" d="M4019.71,3505c-18.87-13.88-25.54-36.54-16.22-55.42h0s-.28.19-.31.39c0-.23.15-.39.13-.49-16.2,17.8-46.48,22.07-70.75,9.09-24.12-13.09-33.69-38.91-23-59.84l-.35.36a.7.7,0,0,1,.17-.4h0c-14.81,16-40.67,21.1-63.3,12.44L3715.2,3772.5Z"/><path class="cls-20" d="M4019.71,3505c-18.87-13.88-25.54-36.54-16.22-55.42h0s-.28.19-.31.39c0-.23.15-.39.13-.49-16.2,17.8-288.11,323.06-288.11,323.06Z"/><path class="cls-28" d="M3806.92,3691.8a228.33,228.33,0,0,0-23.39-15.07,214.27,214.27,0,0,0-29.07-12.69L3715.2,3772.5Z"/><path class="cls-16" d="M1502.15,2472.61s501.46-407.29,548.28-465.43,184.67-140.07-17.61-107.35-553,259-660,320.93S1431.73,2483.11,1502.15,2472.61Z"/><path class="cls-16" d="M1887.45,2015.17s42-55.47,121.92-105.16,208.15,11.22,257.45-1.87,265.9,1,288.6,4.48,12.92,25.8-67.51,32.52-190.09,24.9-190.09,24.9l149.73,34,99.09,72.3s-26.23,26.68-68.13,8.1a384.44,384.44,0,0,1-64.77-36.37l-133.55-15.68,110.08,80.35L2512,2188.56s-39.88,50.5-130.27-23.13c-50.58-41.18-149.07-46.62-149.07-46.62l76.36,68.84,58.49,47s-9.12,43.07-56,13.65c-74.69-46.89-131-80.39-131-80.39s-141.8-4.25-216.26-55.33"/><path class="cls-4" d="M1272.05,3291c-92-16.78,77.86-114,210.73-75.2-150.26-102.75-14.19-155.24,149.58-93.25-4.53-37.05,13.57-68.77,61.71-87.15,101.36-38.75,242.24,16.58,314.46,90,34.85-43.23,82.29-81.44,138.51-96.11,162.24-42.4,179.85,25.95,123.5,111.39,16.7-4.52,31.07-8.57,42.26-11.94,211.81-63.87,192.66,30.54,43.16,99.3,18,2.87,35.86,9.74,54.87,14.5,95.22,23.92,220.55,324.11,59.8,328.43C1530,3596.25,1272.05,3291,1272.05,3291Z"/><path class="cls-27" d="M1111.38,2543.37c52.14-10.21,103.36-41.91.48-49.34s-49.78,21.85-25.14,19.44,65.11-19,97.66-44.61c28.11-22.14,56.29-81.23-76.94-38.32s-16,36.66,14.57,28.42,68-116.72,31.83-133.7-97.36,17.79-101.1,80.67,29.21-57.38-22-72.83c-32-9.65-65,33-37.42,94.45s14.82-12.43-14.27-22.87-41,19.49-22.45,59.46S996.54,2565.87,1111.38,2543.37Z"/><path class="cls-27" d="M875.47,2372.13c25.27-9.09,44.8-23.63,74.3-70.64,30.82-49.07.33-77.39-47.3-30.85s-13,49.91-.5,35.31,32.36-126.8.8-145c-19.89-11.52-60.59,13.52-62.84,57.71s29.2-28.28-24.89-72c-50.83-41.15-97.23,13.53-86.69,48.65s7,75.45,37.51,85.5-38.14-64.26-73.1-54.82-20.17,47.61,3.41,65.15,45.26,34.22,89.5,37.76-51.8-25.42-74.57-3.81S758.22,2414.36,875.47,2372.13Z"/><path class="cls-4" d="M1050,2549c31.73,2,41.72-25.64,8.85-37.89s-36.89.45-34.81,11.13,27.4-13.85,22.6-31.39c-4.57-16.7-40.41-27.08-52.15-4.57-9.27,17.76,5.87,30.74,7.56,21.86s-29.56-44.07-35.19-32.7,7.25,37.06,28.75,55.51C1006.76,2540.5,1035.25,2548.06,1050,2549Z"/><path class="cls-4" d="M893.05,2367.74c21.69-20.56,3-40.46-15.8-28.43-7.51,4.84-27.53,27.45-19.72,32.74,9.72,6.6,15.06-24.32-12.34-35.69-17.61-7.32-34.83,16.76-24,30.73,12.51,16.17,18.94,11.66,12,5s-57.6-6.06-50.79,4.81,24.68,18.27,54.33,14.41C852.05,2389.37,876,2384,893.05,2367.74Z"/><path class="cls-29" d="M1003.17,2520.51s-61,10.1-39,122.27,114.93,173.6,134.26,305.46"/><path class="cls-29" d="M857.53,2372.05s-11.22,74.72,14.61,156.34S1058.8,2695.32,1099.37,2792s21.29,137.67,5,201.12"/><path class="cls-17" d="M1697.91,3254.35s13.82-4.61,24.74-1.25c22.06,6.82,17.63,20.25,1.4,21.84s-33.75-5.14-40.39-8.4,20.1,6.07,13.2,23.82-33.9-18.67-11.69-36.53-15.05,27.17-27.44,36.42-21.27-3.77-14.58-13.46c5-7.24,8-19.1,53.19-17s-18.86,13-44.47-9.7-23.9-30.55-10.55-29.73,54.79,25.62,31.59,48.05,2.53-1.4,5.12-14.06c1.77-8.75,6.54-33.53,17.13-39.11,13.2-6.92,23.13-3,15,17.52S1697.91,3254.35,1697.91,3254.35Z"/></g></svg>