<svg xmlns="http://www.w3.org/2000/svg" viewBox="0 0 1789.68 1472.5"><defs><style>.cls-1{fill:#7f8dfb;}.cls-1,.cls-10,.cls-11,.cls-12,.cls-13,.cls-14,.cls-15,.cls-16,.cls-17,.cls-18,.cls-19,.cls-2,.cls-20,.cls-21,.cls-22,.cls-23,.cls-24,.cls-25,.cls-26,.cls-27,.cls-3,.cls-4,.cls-5,.cls-6,.cls-7,.cls-8,.cls-9{fill-rule:evenodd;}.cls-2{fill:#6370e3;}.cls-3{fill:#653f28;}.cls-4{fill:#40281a;}.cls-5{fill:#d89771;}.cls-6{fill:#eaa884;}.cls-7{fill:#f0ead6;}.cls-8{fill:#ddd6ba;}.cls-9{fill:#3c49b6;}.cls-10{fill:#af8d21;}.cls-11{fill:#f7e036;}.cls-12{fill:#ced1f5;}.cls-13{fill:#fefbf0;}.cls-14{fill:#c0b895;}.cls-15{fill:#9c9476;}.cls-16{fill:#d9d4c0;}.cls-17{fill:#373737;}.cls-18{fill:#f3d143;}.cls-19{fill:#d6e6f3;}.cls-20{fill:#5fa78e;}.cls-21{fill:#eaa73d;}.cls-22{fill:#ba7b58;}.cls-23{fill:#82dfc0;}.cls-24{fill:#dcb129;}.cls-25{fill:#362e95;}.cls-26{fill:#a6ace0;}.cls-27{fill:#fff;}</style></defs><g id="_77" data-name="77"><path class="cls-1" d="M1400.88,623.73l105,63.4-26.67,16.08v-.16l-88.55-53.13Zm78.33,202.81v-92l13.26-8V834.82ZM1384,667.24l77.37,46.41h.32L972,1006.55,210.73,549.22l46-27.68.32.33L449.64,406.5q27.8,43.77,47.11,66.64a52.63,52.63,0,0,0,2.4,5.13q-15.18,1-21.56,2.82-19,5.48-19,35.48,0,37.95,62.92,71.44,71.29,28,128.8,46.33Q774.8,674,834.67,668.57q48.57-4.34,72.58-3.57,19.13.57,22.6,4.4,2.74,2.85,11.82,16.24,2.55,3.72,5.59,8.29,1,1.16,5.59,16.41,4.64,15.92,11.18,26,22,34.14,73.78,34.15a147.19,147.19,0,0,0,27.07-2.24q-7.17,6.66,1.35,13.34-10.67,8.37,3.2,16.75l90.38,54.2q15.66,9.27,31.3-.17l153.31-91.83q14.1-8.41,3.2-16.74,4.25-3.27,4.71-6.55a54.48,54.48,0,0,0,11.42-18.15Zm-5.35-57-27.07,16.24L1167.8,516.07l.48-1.33q1.92-4.47-.16-10.27l3.35-3.82.48-1a20.57,20.57,0,0,0,3.83-11.77l189.64,114.54.09-.17,4.47,2.65-.16.17,5.67,3.48.07-.16Zm-340-150.34-2.23,7q-32.43-8.62-87,6.3a78.58,78.58,0,0,0-16.93,5.8,98,98,0,0,1-14.69,6q-23.79-10-36.25-14.75l-21.88-8-2.23-2.32c-.75-.77-1.5-1.54-2.24-2.32A213.54,213.54,0,0,0,828,432.2a128.07,128.07,0,0,0-46.63-22.71,145.51,145.51,0,0,0-53.18-1.5,14.81,14.81,0,0,1-3.83.5q-16.61-7.29-24.59-9.78a87.74,87.74,0,0,0-26.19-5.14c.64-.44,2.23-1.71,4.79-3.81a115.86,115.86,0,0,0,19-21.71q10.21-16.57,10.86-33.15-.65-24,1-55.2l.8-11,.48-5.72ZM1158.7,532l175.18,105.09L1264.1,679l-9.91-6q-15.64-9.45-31.45,0l-32.66,19.56q10.56-14.72,12.69-40.77l1.92-4q0-33-58.93-69.12a30.52,30.52,0,0,1,5.75-10.12q10.21.51,8.78-9.44-3.35-12.43-2.39-17.08a18.76,18.76,0,0,1,.48-9.94Zm.8,178.94-58.37,35a37,37,0,0,0,2.15-4.89q3.2-8.79,2.24-22.71-1.92-11.92-1.44-14.42l8.78,1,1.92.91,7,2.57,2.23.5Q1144.38,713.38,1159.5,710.92ZM717.77,245.72l28.11-16.91,327.86,197.58-3.36,1.33A55.75,55.75,0,0,0,1049.94,442l-1.91,2.15ZM972,1146.61,210.73,686.47l26.83-16.08v16.24L972,1130.53h26.67ZM611.89,398.71q-53.65.33-33.53,52.22a129.35,129.35,0,0,0-21.08-.83q-16.77,0-17.57-9.78-5.12-25.86-15.81-43.43a87.43,87.43,0,0,0-19-23.54l156.5-93.82L655,298.59q-15,42.95-42.48,98.3Z"/><path class="cls-2" d="M1384,667.24l6.71-17.32,88.55,53.13v.16l-11,22.54-6.55-12.1h-.32Zm95.26,159.3,13.26,8.28L1018.64,1118.6h-.16l-19.8,11.93H972l46.47-28h.16ZM972,1146.61v33.82L242.83,739.84l-32.1-19.39v-34Zm66.59-686.73L710.43,263l.16-2.32,6.7-15.25.48.33L1048,444.13l-1,1.66a46.12,46.12,0,0,0-7.83,12.76Zm-3.35,212.5-.8-1.83q-8.62-18.22-12-27,8.79-14.1,7.35-32.49-.79-10.11-3.19-24.2l-2.88-12.6q7.66-.5,18,4.48,16.29,8.12,16.92,8.12,10.71,20.55,27.79,24.53l-1.91,2.49q-3.84,8.45-20.92,42.43-13.1,25.69-20.44,42.6Q1041.8,688.13,1035.25,672.38ZM499.15,478.27a85.51,85.51,0,0,0,22.35,25q12.3,10.11,33.38,20.22,31.3,25.53,62.92,35,3.19,8.79,6.71,13.1a25.67,25.67,0,0,0,3.83,4.64,15.72,15.72,0,0,0,8.47,5,406.52,406.52,0,0,0,55.25,7.63q14.63,1,29,3.06,12.44,1.88,24.67,4.56,5.12.82,10.86,2.16v-.17q5.58,5.14,16,9.12l1.44.49A342.07,342.07,0,0,0,815,623,314.13,314.13,0,0,0,950,632.6l2.88-.67a26.84,26.84,0,0,1,4.95,8,5.12,5.12,0,0,0,.8,1.82L962,653.32q4,13.59,12.93,16.08a151.8,151.8,0,0,1,7.19,13.92q4.15,9.45,7.35,13.59l.48.33.48.66h.07l2.4,3.15,5.11,7q4.62,6.43,11.1,15.74,1.37,2,2.72,3.9a168.67,168.67,0,0,0,18,21.8q6.56,6.13,16.61,5.3a18.59,18.59,0,0,0,7.82-1.66,14.68,14.68,0,0,0,6.87-7.13q12.78-20.06,26.35-52,14.54-37.63,21.72-54.37a101.56,101.56,0,0,1,7.19,16.08q4.95,13.1,6.7,16.74c.34.79.69,1.56,1,2.32a2.33,2.33,0,0,0,.24.41q4.22,8.64,10.06,13.1l.16.08q49.61,20.94,32.42-38.12c-.19-.57-.4-1.14-.64-1.74a49.41,49.41,0,0,0-2.71-5.39c-.12-.17-.22-.33-.32-.5q-8-11.43-10.38-17.57-.48-3.15-3.83-14.75a123.44,123.44,0,0,1-4.32-14.09q-1.59-9.95,1-17.4,58.93,36.13,58.93,69.12l-1.92,4q-2.13,26-12.69,40.77l-30.58,18.32q-15.12,2.46-35.46-2.07l-2.23-.5-7-2.57-1.92-.91-8.78-1q-.48,2.49,1.44,14.42,1,13.94-2.24,22.71a37,37,0,0,1-2.15,4.89l-31.7,19a24.67,24.67,0,0,0-4.55,3.4,147.19,147.19,0,0,1-27.07,2.24q-51.75,0-73.78-34.15-6.56-10.11-11.18-26-4.64-15.26-5.59-16.41-3-4.57-5.59-8.29-9.07-13.39-11.82-16.24-3.48-3.84-22.6-4.4-24-.76-72.58,3.57Q774.81,674,650.3,634.34,592.79,616,521.5,588q-62.91-33.48-62.92-71.44,0-30,19-35.48Q484,479.28,499.15,478.27Zm668.65,37.8,183.73,110.39-17.65,10.61L1158.7,532l1.11-2a55.78,55.78,0,0,1,4-6.46A40.46,40.46,0,0,0,1167.8,516.07ZM210.73,549.22,972,1006.55v31.82L240.44,596.46l-29.71-18.07Zm783,812.71.8-2.48,10.86,9.61Zm-415.37-911Q558.23,399,611.89,398.71a39.81,39.81,0,0,0-3.67,13.1v1.32a60.25,60.25,0,0,0,.8,10.44,4.44,4.44,0,0,1,.64,1.66l.8,3.49q3.18,10.93,11.65,23.86l3.52,5q-21.89-3.82-34.18-5.14Zm282,13.42h1.12l-1.92-2.15,21.88,8q12.46,4.8,36.25,14.75a64.08,64.08,0,0,1-22.51,1,31.18,31.18,0,0,1-7.83-1,19.65,19.65,0,0,0-3.51-1.33q-8.15-2.65-13.58-11.27Q866,466,860.38,464.35Z"/><path class="cls-3" d="M1149.59,494.69l-30.34-7.63q-17.73-4.8-21.56-6.63-32.73-24.36-48.23-33.32l-2.39-1.32,1-1.66,1.91-2.15a55.75,55.75,0,0,1,20.44-14.26l3.36-1.33a70.15,70.15,0,0,1,23.63-4.14,104,104,0,0,1,24.92,3,120.51,120.51,0,0,1,15.81,6,110.38,110.38,0,0,1,12,7.13A45.37,45.37,0,0,1,1167,457.56l5.91,14.42a18.07,18.07,0,0,1,1.44,4.81,27.72,27.72,0,0,1,1.43,11.1,20.57,20.57,0,0,1-3.83,11.77l-3.67-.5-7.51-2q-5.26-3.15-9.74-13.75A30.3,30.3,0,0,1,1149.59,494.69Zm-53.65,20.72q-15.35,3.81-22,8.12a11,11,0,0,1-3.36-4.15l-2.39-5.8q-3.2-6.3-7.83-6.3-7.35,1.17-10.22,9a30,30,0,0,0-.64,14.43,10,10,0,0,1-8.14-3.49l-.16-.66-1.44-2.65a20.51,20.51,0,0,1-1.43-4.81,10.27,10.27,0,0,0-.48-3.15l-.16-3-1.76-10.61a6.88,6.88,0,0,1-.48-2.65,73.6,73.6,0,0,1-1-12.6,62.88,62.88,0,0,1,1-15.42l1.76,1.5a515.15,515.15,0,0,0,45.51,34Z"/><path class="cls-4" d="M1149.59,494.69l-.16,1.82-2.55,7q-3.51,9.78-4.15,15.58a8.92,8.92,0,0,1-4.32-3.64l-2.87-5.47-.64,9.11a16.58,16.58,0,0,1-4.31-4,25.94,25.94,0,0,1-4.47-11.77,36.43,36.43,0,0,1-7.19,4.8q-6.71,3.48-18.68,6.3h-.56a1.46,1.46,0,0,0-.56.33l-1.44.34h-.8l-.64.33h-.31l-13.26-8.29a515.15,515.15,0,0,1-45.51-34l-1.76-1.5,1-4.8,2.23-7,.64-1.33a46.12,46.12,0,0,1,7.83-12.76l2.39,1.32q15.49,9,48.23,33.32,3.84,1.83,21.56,6.63Zm22.36,5-.48,1-3.35,3.82c-.32-2.33-2.4-4.42-6.23-6.3-.32,0-.69-.33-1.12-1l7.51,2Z"/><path class="cls-5" d="M1068.15,513.58l2.39,5.8a11,11,0,0,0,3.36,4.15q6.7-4.31,22-8.12h.31l.64-.33h.8l1.44-.34a1.46,1.46,0,0,1,.56-.33h.56q12-2.82,18.68-6.3a36.43,36.43,0,0,0,7.19-4.8,25.94,25.94,0,0,0,4.47,11.77,16.58,16.58,0,0,0,4.31,4l.64-9.11,2.87,5.47a8.92,8.92,0,0,0,4.32,3.64q.63-5.79,4.15-15.58l2.55-7q2.57-8.29,1.6-13.09,4.47,10.6,9.74,13.75c.43.67.8,1,1.12,1,3.83,1.88,5.91,4,6.23,6.3q2.07,5.79.16,10.27l-.48,1.33a40.46,40.46,0,0,1-4,7.46,55.78,55.78,0,0,0-4,6.46l-2.71,1q-21.24,7.29-64.2,7.29-20.12,0-25.87-9.12-1.92-3-1.92-10.27C1065.11,517.34,1066.13,515.57,1068.15,513.58Zm16.45,100.29,1.91-2.49q-17.09-4-27.79-24.53-5.9-8.62-4.79-16.74,2.57-3.5,6.23-.33,2.08,5,5.11,11.43l-.48-10.86-.64-15.83.49-1.49a30.68,30.68,0,0,1,1.91-8.12,6.78,6.78,0,0,1,7.83,0q3.82,2.16,4.79,7.46.32-4.47,2.55-6.63l1.92-1.49q4.3-3,7.82,2.65,4-4.47,8-1.49,3.83,3,3.35,8.62l2.24,2.32a25.13,25.13,0,0,1,3.19,5.14l.8,1.65v.5q.65,2.33,2.08,10.94,1,7.8,2.39,11.27a23.54,23.54,0,0,0,5.75,9.12q4.15,3.48,10.38,2a39.19,39.19,0,0,0,9.74-5.64,19.33,19.33,0,0,1,.48,9.12,16,16,0,0,1-3.83,7.62q-6.39,7.63-14.69,1.5.48,14.91-13.74,13.42Q1097.38,622,1084.6,613.87Zm-94.06,84h-.16l-.48-.66-.48-.33q-3.2-4.14-7.35-13.59a151.8,151.8,0,0,0-7.19-13.92q13.26.83,26.35-7.63,9.75-5.81,21.24-18.23,3.36,8.78,12,27l.8,1.83a39.21,39.21,0,0,1-6.39,7.62c-.31.32-.63.63-1,.91Q1013,695.51,990.54,697.9Zm-287-278.8-.48.66-.64.83-.16.33-.16.34-.32.33-.48.66h-.16a2,2,0,0,0-.32,1.32h-.48v.17l-.47.83h-.16l-1.44,3.15a6.77,6.77,0,0,0-1,2.65l-.48.33v.67h-.32L694.78,437v.33l-.48,2.33-.32.66a26.81,26.81,0,0,1-13.26,5.8,73.68,73.68,0,0,1-14.53.33q-10.7-.49-14.21-.33a28.91,28.91,0,0,0-13.74,4.81,26.69,26.69,0,0,0-6.07,3.64q-8.77-1.65-10.06-2-8.46-12.93-11.65-23.86l-.8-3.49a4.44,4.44,0,0,0-.64-1.66,60.25,60.25,0,0,1-.8-10.44v-1.32l4.31-1.33a224.78,224.78,0,0,1,25.87-9.61,305.51,305.51,0,0,1,31.78-9.12l8.15-2c-2.56,2.1-4.15,3.37-4.79,3.81a87.74,87.74,0,0,1,26.19,5.14q8,2.49,24.59,9.78a4.47,4.47,0,0,0-2.08.5,22.36,22.36,0,0,0-16.13,7.62l-2.23,2C703.88,418.94,703.77,419.1,703.56,419.1Z"/><path class="cls-6" d="M1159.81,530l-1.11,2-.32.17a18.76,18.76,0,0,0-.48,9.94q-1,4.65,2.39,17.08,1.44,9.95-8.78,9.44a30.52,30.52,0,0,0-5.75,10.12q-2.55,7.46-1,17.4a123.44,123.44,0,0,0,4.32,14.09q3.35,11.61,3.83,14.75,2.38,6.13,10.38,17.57c.1.17.2.33.32.5a49.41,49.41,0,0,1,2.71,5.39c.24.6.45,1.17.64,1.74q17.19,59.05-32.42,38.12l-.16-.08q-5.85-4.47-10.06-13.1a2.33,2.33,0,0,1-.24-.41c-.35-.76-.7-1.53-1-2.32q-1.75-3.64-6.7-16.74a101.56,101.56,0,0,0-7.19-16.08q-7.18,16.74-21.72,54.37-13.58,32-26.35,52a14.68,14.68,0,0,1-6.87,7.13,18.59,18.59,0,0,1-7.82,1.66q-10.07.82-16.61-5.3a168.67,168.67,0,0,1-18-21.8q-1.35-1.9-2.72-3.9-6.48-9.28-11.1-15.74l-5.11-7q-1.29-1.8-2.31-3.15,22.43-2.4,37.36-17c.33-.28.65-.59,1-.91a39.21,39.21,0,0,0,6.39-7.62q6.55,15.75,8,26.52,7.34-16.9,20.44-42.6,17.08-34,20.92-42.43,12.78,8.11,23,9.11,14.22,1.5,13.74-13.42,8.3,6.13,14.69-1.5a16,16,0,0,0,3.83-7.62,19.33,19.33,0,0,0-.48-9.12,39.19,39.19,0,0,1-9.74,5.64q-6.23,1.49-10.38-2a23.54,23.54,0,0,1-5.75-9.12q-1.44-3.48-2.39-11.27-1.44-8.61-2.08-10.94v-.5l-.8-1.65a25.13,25.13,0,0,0-3.19-5.14L1102.8,554q.48-5.64-3.35-8.62-4-3-8,1.49-3.51-5.64-7.82-2.65l-1.92,1.49q-2.23,2.16-2.55,6.63-1-5.29-4.79-7.46a6.78,6.78,0,0,0-7.83,0,30.68,30.68,0,0,0-1.91,8.12l-.49,1.49v5a115.57,115.57,0,0,0-9.74-13.1q-9.57-11.43-13.09-17.4a9.93,9.93,0,0,1-1.6-4.48v-.66l1.44,2.65.16.66a10,10,0,0,0,8.14,3.49,30,30,0,0,1,.64-14.43q2.88-7.78,10.22-9,4.64,0,7.83,6.3c-2,2-3,3.76-3,5.31q0,7.29,1.92,10.27,5.74,9.12,25.87,9.12,43,0,64.2-7.29Zm-542,28.51q-31.62-9.43-62.92-35-21.07-10.11-33.38-20.22a85.51,85.51,0,0,1-22.35-25,52.63,52.63,0,0,1-2.4-5.13q-19.32-22.87-47.11-66.64L430.8,376.67a196.82,196.82,0,0,0,26.67-16.75q6.38-5,15.8-13.09,7,7,19,17.9a92.41,92.41,0,0,1,12.62,8.62,87.43,87.43,0,0,1,19,23.54q10.7,17.57,15.81,43.43.79,9.78,17.57,9.78a129.35,129.35,0,0,1,21.08.83l13.09,1.49q12.3,1.32,34.18,5.14l-3.52-5q1.27.35,10.06,2-8.77,7-13.41,19.73-4.15,11.43-5.43,31.33-.48,17.24.16,26.52.48,7.79,1.44,14.25A73.64,73.64,0,0,0,617.8,558.5Zm50.63-303.66a53.21,53.21,0,0,0,19.32,9,81.6,81.6,0,0,0,19.8,2.32h2.56l-.16,2.57-.8,11q-1.6,31.16-1,55.2-.65,16.58-10.86,33.15a115.86,115.86,0,0,1-19,21.71l-8.15,2a305.51,305.51,0,0,0-31.78,9.12,224.78,224.78,0,0,0-25.87,9.61l-4.31,1.33a39.81,39.81,0,0,1,3.67-13.1l.64-1.82Q640,341.53,655,298.59l6.39-19.06Q665.87,265,668.43,254.84Z"/><path class="cls-7" d="M1479.21,793.21v33.33l-460.57,276h-.16l-46.47,28v-46.24l26.67-5.31,8.94-2.81c5.22-2,8.89-3.48,11-4.48q44.24-18.06,127.92-68.46,38.32-23,77.77-48.07,42.64-27.31,78.73-53c1.33-1,2.66-1.94,4-2.9q25.08-17.73,73.46-45.75l16.3-9.61q46.79-27.35,60.68-36.3Q1468.67,800.85,1479.21,793.21ZM972,1084.29l-734.45-453V594.8l2.88,1.66L972,1038.37Z"/><path class="cls-8" d="M972,1084.29v-45.92l507.2-303.83v58.67q-10.55,7.63-21.72,14.43-13.89,8.94-60.68,36.3l-16.3,9.61q-48.37,28-73.46,45.75c-1.33,1-2.66,1.92-4,2.9q-36.09,25.65-78.73,53-39.43,25-77.77,48.07-83.68,50.38-127.92,68.46c-2.13,1-5.8,2.48-11,4.48l-8.94,2.81Zm25.71,207-12.46,4.39v-55l177-106.42,3,1.16,59.49,24.7,49.83-93.49L1466,951.18v58.68l-21.56,14.42q-15.48,9.78-77.29,45.75-46.95,27.53-73.3,45.92-63.4,45.75-160.34,103.93-84,50.55-128.07,68.46Z"/><path class="cls-9" d="M1066.23,781.61a35.49,35.49,0,0,0,3.2,2.16l90.38,54.2q15.66,9.28,31.3-.17L1344.42,746a32.29,32.29,0,0,0,3.2-2.15q10.91,8.31-3.2,16.74l-153.31,91.83q-15.64,9.45-31.3.17l-90.38-54.2Q1055.56,790,1066.23,781.61Zm413-47.07L972,1038.37v-31.82l489.63-292.9,6.55,12.1,11-22.54,26.67-16.08V859.85l-41.2,24.78-190.6,114.54-71.47,42.93-13.41,8.12-8.62,5.14-12.22,7.38-9,5.39-15.64,9.44-10.54,6.3-14.06,8.46-29.22,17.57-71.23,42.68-.16-.17L977.68,1177l-3.67,2.24-2,1.16v-33.82l26.67-16.08,19.8-11.93h.16l473.83-283.78V726.58Z"/><path class="cls-10" d="M1297.79,1020.3l194.83-116.86v31.67L1466,951.18l-191.47,115.37,24.27-45.58ZM985.26,1332.76v16.08L1492.62,1043v34l-487.23,292.23v-.16l-10.86-9.61-.8,2.48-5.91,17.74-29.07,17.4V1223.19l29.07-16.9,6.71,12.09,10.86-22.7,124.32-74.59,1.36.41.4.08,1.68.5,26.82,11.11,2.24,1-177,106.42v92.16Z"/><path class="cls-11" d="M1089.87,1109.9l39.84,11.19-124.32,74.59L976,1178.11l1.68-1.08,40.8-24.62.16.17Zm402.75-206.46L1297.79,1020.3l-23.71-21.13,190.6-114.54,29.86,18Zm-1245-141,740.2,443.82-29.07,16.9L197.8,765.87l27.47-16.58Zm1245,280.54L985.26,1348.84v-16.08L1466,1043v-16.08Z"/><path class="cls-12" d="M1101.13,745.89l58.37-35,30.58-18.32L1222.74,673q15.81-9.45,31.45,0l9.91,6-30.19,18.07a52.53,52.53,0,0,0-22.35,26.85l-.24.66L1126,775.65q-12.93,7.79-4.31,12.93l49,29.5a15.69,15.69,0,0,0,3.59,1.58l-1.84,4.72q-6.11,15.47,5.59,9.69-3.32,12.07,10.22,3.9l153-91.83a53.24,53.24,0,0,0,11.1-8.87q-.46,3.29-4.71,6.55a32.29,32.29,0,0,1-3.2,2.15L1191.11,837.8q-15.64,9.45-31.3.17l-90.38-54.2a35.49,35.49,0,0,1-3.2-2.16q-8.52-6.69-1.35-13.34a24.67,24.67,0,0,1,4.55-3.4Zm89.67-22.13L1173.07,713a5.2,5.2,0,0,0-5.75-.17l-26.83,16.08c-1.92,1.11-1.86,2.27.16,3.48l17.73,10.78a5.74,5.74,0,0,0,6.07.16l26.82-16.07Q1194,725.59,1190.8,723.76ZM976,1178.11l-2,1.16,3.67-2.24Zm490-168.25v-10l101.89,61.08L962.91,1423.43,148.29,935.11l49.51-29.67v31.49l761,460.14,29.07-17.4,5.91-17.74,11.66,7.13v.16L1492.62,1077v-34L1466,1026.93ZM985.26,1295.63l12.46-4.39-9.9,3.73Zm177-161.45-2.24-1,5.19,2.15Z"/><path class="cls-13" d="M237.56,631.27l734.45,453v46.24L237.56,686.63V631.27ZM1466,1009.86V1043L985.26,1332.76v-37.13l2.56-.66,9.9-3.73,7.67-2.9q44.07-17.91,128.07-68.46,96.94-58.19,160.34-103.93,26.35-18.4,73.3-45.92,61.8-36,77.29-45.75Zm-191.47,56.69L1224.65,1160l-59.49-24.7-5.19-2.15-26.82-11.11,27.3-16.58a22,22,0,0,1,4.79,1.17,193.06,193.06,0,0,1,18.53,7.46l11.5,4.14q1.27.33,5,1.66l18.36,4.64,3.52-6-7.35-4.81-16-7.12a78,78,0,0,1-7.82-3.15l-16.93-6.3,12-7.46,12,5.8a70.35,70.35,0,0,0,8.94,4.48l12.3,4.8a36.4,36.4,0,0,0,8.47,1q1.9-5.64-3.68-8.95l-.48-.34-9.26-5.14-18.84-7.62,9.58-5.64a52.52,52.52,0,0,0,6.87,3.32q6.22,4,19.48,8.12a16.19,16.19,0,0,1,3.67-5.8l-14.69-6.8a30.86,30.86,0,0,1-6.71-4l9.27-5.81q10.21,4.82,16.92,5.81l5.11-5.14q-4.47-2.66-5.11-3.65l-6.54-3.32,65.47-39.94Z"/><path class="cls-14" d="M1160.45,1105.5l-27.3,16.58-1.68-.5-.4-.08-1.36-.41-39.84-11.19,29.22-17.57,2.72.58,19.32,6.46a41.48,41.48,0,0,0,8.14,1.83,61.05,61.05,0,0,0,8,3.31Zm-16.76-27.93,38.32,11.52.8.34,3.2.33-12,7.46-9.42-3.15a77.38,77.38,0,0,0-10.39-4.31,67.25,67.25,0,0,0-10.22-2.82l-10.85-3.07Zm51.74,6.22-8.15-4.14a58.56,58.56,0,0,0-9.26-4.81l-18.69-6.71,9-5.39,8.06,4.14q2.71,1,9.9,4.15a116.78,116.78,0,0,0,16.13,5.8l.8.16a2.45,2.45,0,0,1,1.76,1.16Zm-14.85-28.43,8.62-5.14,10.7,4.56,21.24,11.61,2.07.82h-.31l-9.27,5.81-29.22-16.41ZM1298.75,1021l-65.47,39.94-1.28-1a53.32,53.32,0,0,0-8-5.3,28.75,28.75,0,0,0-5.11-3,95.34,95.34,0,0,0-10.22-6.13l-6.07-3.4,71.47-42.93,23.71,21.13Z"/><path class="cls-15" d="M1143.69,1077.57l15.64-9.44,18.69,6.71a58.56,58.56,0,0,1,9.26,4.81l8.15,4.14-9.42,6-3.2-.33-.8-.34Zm16.76,27.93-3.19-1a61.05,61.05,0,0,1-8-3.31,41.48,41.48,0,0,1-8.14-1.83l-19.32-6.46-2.72-.58,14.06-8.46,10.85,3.07a67.25,67.25,0,0,1,10.22,2.82,77.38,77.38,0,0,1,10.39,4.31l9.42,3.15Zm28.75-55.28,13.41-8.12,6.07,3.4a95.34,95.34,0,0,1,10.22,6.13,28.75,28.75,0,0,1,5.11,3,53.32,53.32,0,0,1,8,5.3l1.28,1-10.07,6.3-2.07-.82-21.24-11.61Zm-8.62,5.14,3.83,1.25,29.22,16.41-8.62,5.13a2.45,2.45,0,0,0-1.76-1.16l-.8-.16a116.78,116.78,0,0,1-16.13-5.8q-7.18-3.15-9.9-4.15l-8.06-4.14Z"/><path class="cls-16" d="M1223.21,1067.21l10.07-6.3,6.54,3.32q.65,1,5.11,3.65l-5.11,5.14q-6.71-1-16.92-5.81Zm-49.18,30,16.93,6.3a78,78,0,0,0,7.82,3.15l16,7.12,7.35,4.81-3.52,6-18.36-4.64q-3.67-1.34-5-1.66l-11.5-4.14a193.06,193.06,0,0,0-18.53-7.46,22,22,0,0,0-4.79-1.17Zm12-7.46,9.42-6,18.84,7.62,9.26,5.14.48.34q5.6,3.3,3.68,8.95a36.4,36.4,0,0,1-8.47-1l-12.3-4.8a70.35,70.35,0,0,1-8.94-4.48Zm19-11.61,8.62-5.13a30.86,30.86,0,0,0,6.71,4l14.69,6.8a16.19,16.19,0,0,0-3.67,5.8q-13.26-4.14-19.48-8.12A52.52,52.52,0,0,1,1205,1078.15Z"/><path class="cls-17" d="M423.45,241.74v.83l-.16.16-.64.83-.64,1.83a34,34,0,0,1-12.29,13.92l-6.39,4.31q-15.66,9.94-46.79,22.05-28.43,10.6-62.61,21.05a3.29,3.29,0,0,0-1.75.33,41.88,41.88,0,0,1-12.86,3.64h-3.75L271.1,310a12.86,12.86,0,0,1-5-9.61,11.83,11.83,0,0,1,4.31-10.11,118.36,118.36,0,0,1,25.23-17.74A80.41,80.41,0,0,1,324.44,263a99.91,99.91,0,0,0,16.93-3,66.12,66.12,0,0,0,15.81-5.8Q360,240.25,374.74,232q5.91-3.32,27.79-10.61,8.46-3.32,13.73,5.14a40.76,40.76,0,0,1,4.63,9.12Zm313.49-66q-3,8.61-14.54,11.6a49.53,49.53,0,0,1-19.16.66Q692.55,183.4,686,167.65a210,210,0,0,0-9.58-26.36q-12.93-25.2-14.69-29Q654.37,95.54,652.93,81q-.46-9.95,0-12.92,1.44-7.8,7.83-8.79a64.92,64.92,0,0,1,30.82,1.49Q708,65.55,718.73,76.48q6.22,6,9.1,17.57,1.13,5.13,3.2,19.89.15,7,3.83,30.83Q737.58,164.49,736.94,175.77Z"/><path class="cls-18" d="M1035.41,499.66l-.64.5h-.32l-1.28.49-.63.17-.64.33a3.28,3.28,0,0,0-1.76.5,83.94,83.94,0,0,0-10.86,5.63,43.06,43.06,0,0,0-10.22,10.12l-2.87,4.64a27.73,27.73,0,0,0-2.4,19.22,73.76,73.76,0,0,0,6.07,19.73q3.2,9,4.95,10.28v.33l1.12,1,.32.17q2.55,2.47,7.5,1.49l2.88,12.6q-12.14-15.09-26.51-23.21-23-13.1-37-.5-7,6-10.86,17.24v.83q-3.84-18.72-12.62-19.72-3.51,0-31.78,8.62a197.7,197.7,0,0,1-62.28,10.11q-3.84,0-49-5.64-35-4.14-44.87-4.8v-1.66a139.43,139.43,0,0,1,4-18.07l4.63-12.76a84.79,84.79,0,0,1,12.94-25.53,38.23,38.23,0,0,1,3.83-5c.26-.28.53-.55.8-.83l.16-.67a76.9,76.9,0,0,1,7.18-7.12l17.17-13.26.16-.09,2.08-1.65,1.19-.92q21.09-12.25,26.83-14.58l21.08-4.48a17.89,17.89,0,0,1,6.71,1.16q5.6,1.66,9.9,8,5.43,8.61,13.58,11.27a19.65,19.65,0,0,1,3.51,1.33,31.18,31.18,0,0,0,7.83,1,64.08,64.08,0,0,0,22.51-1,98,98,0,0,0,14.69-6,78.58,78.58,0,0,1,16.93-5.8q54.61-14.92,87-6.3l-1,4.8a62.88,62.88,0,0,0-1,15.42A73.6,73.6,0,0,0,1035.41,499.66ZM429.68,299.09q-28.28.84-40.88,18.57a12.11,12.11,0,0,1-4.48,1.65,252,252,0,0,0-56.05-5,296.39,296.39,0,0,0-37.69,5.47h-1.44a15.65,15.65,0,0,1-11-1,13.28,13.28,0,0,1-7-8.79l4.47.66h3.75a43.41,43.41,0,0,0,14.61-4q34.19-10.44,62.61-21.05,31.14-12.1,46.79-22.05l6.39-4.31A34,34,0,0,0,422,245.39l1.28-2.66.16-.16v-.83q12.45,5,16.13,21.55,1.92,9.45,2.87,28.67c-.74,2-2.66,3.49-5.75,4.48A38.44,38.44,0,0,0,429.68,299.09ZM713.62,224.5q-23.31-13.59-33.22-29.84.79-13.42-4-29.17Q672.9,154.89,666,138.14A202,202,0,0,1,656,110a88.75,88.75,0,0,1-3-29q1.44,14.6,8.79,31.33,1.75,3.81,14.69,29A210,210,0,0,1,686,167.65q6.56,15.73,17.25,20.38a49.53,49.53,0,0,0,19.16-.66q11.51-3,14.54-11.6,2.87,14.08-4.32,28A47.54,47.54,0,0,1,713.62,224.5Z"/><path class="cls-19" d="M473.27,346.83q-9.42,8.13-15.8,13.09a196.82,196.82,0,0,1-26.67,16.75L417.54,356l-.48-.33a416.12,416.12,0,0,0-28.26-38q12.61-17.75,40.88-18.57a371.39,371.39,0,0,0,29.86,34.31l12.78,12.27Zm237.32-86.19-.48,5.47h-2.56a81.6,81.6,0,0,1-19.8-2.32,53.21,53.21,0,0,1-19.32-9,498.21,498.21,0,0,0,12-60.18q9.9,16.25,33.22,29.84Zm316,326.21q2.38,14.08,3.19,24.2,1.44,18.39-7.35,32.49Q1011,656,1001.23,661.77q-13.08,8.46-26.35,7.63-8.94-2.49-12.93-16.08l-3.35-11.61a5.12,5.12,0,0,1-.8-1.82q-2.88-40.11-4.95-55.86l-.64-2.82v-.83q3.82-11.26,10.86-17.24,14.05-12.58,37,.5Q1014.49,571.77,1026.63,586.85Z"/><path class="cls-20" d="M804.57,483.17l-1.2.91q-18.84-15.42-21.08-16.41Q737.41,444,697.49,438a16.86,16.86,0,0,0-2.71-.17V437l1.75-5.63h.32v-.67l.48-.33a6.77,6.77,0,0,1,1-2.65l1.44-3.15h.16l.47-.83v-.17h.48l.32-.82v-.5h.16l.48-.66.32-.33h.16v-.34l.16-.33.64-.83.48-.16v-.5c.21,0,.32-.16.32-.5l2.23-2A22.36,22.36,0,0,1,722.24,409a4.47,4.47,0,0,1,2.08-.5,14.81,14.81,0,0,0,3.83-.5,145.51,145.51,0,0,1,53.18,1.5A128.07,128.07,0,0,1,828,432.2a213.54,213.54,0,0,1,27.15,25.36c.74.78,1.49,1.55,2.24,2.32l4.15,4.47h-1.12a17.89,17.89,0,0,0-6.71-1.16l-21.08,4.48q-5.75,2.31-26.83,14.58Zm-52.94,86.61c-.14,1.32-.22,2.65-.24,4a49.5,49.5,0,0,0,5.19,24.7v.17q-5.75-1.33-10.86-2.16-12.24-2.7-24.67-4.56-14.35-2.08-29-3.06a406.52,406.52,0,0,1-55.25-7.63,15.72,15.72,0,0,1-8.47-5,25.67,25.67,0,0,1-3.83-4.64q-3.51-4.3-6.71-13.1a73.64,73.64,0,0,1-2.87-12.1l16.13,5.47a190.86,190.86,0,0,0,61,10q12.3,0,37.53-2.32Q754.51,524,777,506.79a38.23,38.23,0,0,0-3.83,5,84.79,84.79,0,0,0-12.94,25.53l-4.63,12.76a139.43,139.43,0,0,0-4,18.07Z"/><path class="cls-21" d="M756.58,598.45a49.5,49.5,0,0,1-5.19-24.7c0-1.32.1-2.65.24-4q9.9.66,44.87,4.8,45.19,5.64,49,5.64a197.7,197.7,0,0,0,62.28-10.11q28.28-8.62,31.78-8.62,8.79,1,12.62,19.72l.64,2.82q2.07,15.75,4.95,55.86a26.84,26.84,0,0,0-4.95-8l-2.88.67A314.13,314.13,0,0,1,815,623a342.07,342.07,0,0,1-41-14.92l-1.44-.49Q762.17,603.58,756.58,598.45Z"/><path class="cls-22" d="M1058.72,586.85q-.63,0-16.92-8.12-10.38-5-18-4.48-4.95,1-7.5-1.49l-.32-.17-1-1-.16-.33q-1.75-1.34-4.95-10.28a73.76,73.76,0,0,1-6.07-19.73,27.73,27.73,0,0,1,2.4-19.22l2.87-4.64a43.06,43.06,0,0,1,10.22-10.12,83.94,83.94,0,0,1,10.86-5.63,3.28,3.28,0,0,1,1.76-.5l.64-.33.63-.17,1.28-.49h.32l.64-.5a6.88,6.88,0,0,0,.48,2.65l1.76,10.61.16,3a10.27,10.27,0,0,1,.48,3.15,20.51,20.51,0,0,0,1.43,4.81v.66a9.93,9.93,0,0,0,1.6,4.48q3.51,6,13.09,17.4a115.57,115.57,0,0,1,9.74,13.1l.64,10.85.48,10.86q-3-6.47-5.11-11.43-3.67-3.16-6.23.33Q1052.82,578.22,1058.72,586.85Z"/><path class="cls-23" d="M694.3,439.66l.48-1.83a16.86,16.86,0,0,1,2.71.17q39.93,6,84.8,29.67,2.24,1,21.08,16.41l-.88.74-.16.09-17.17,13.26a76.9,76.9,0,0,0-7.18,7.12l-.16.67c-.27.28-.54.55-.8.83Q754.51,524,729.59,559.5q-25.23,2.31-37.53,2.32a190.86,190.86,0,0,1-61-10l-16.13-5.47q-1-6.46-1.44-14.25-.65-9.28-.16-26.52,1.27-19.9,5.43-31.33,4.63-12.76,13.41-19.73a26.69,26.69,0,0,1,6.07-3.64A28.91,28.91,0,0,1,652,446.12q3.51-.17,14.21.33a73.68,73.68,0,0,0,14.53-.33,26.81,26.81,0,0,0,13.26-5.8Z"/><path class="cls-24" d="M987.82,1206.29,247.62,762.47,236,755.26l6.86-15.42L972,1180.43l2-1.16,2-1.16,29.39,17.57-10.86,22.7Zm-790-440.42,761,457.32v173.88L197.8,936.93V765.87Z"/><path class="cls-25" d="M1390.66,649.92,1384,667.24l-20.2,51.88a54.48,54.48,0,0,1-11.42,18.15,53.24,53.24,0,0,1-11.1,8.87l-153,91.83q-13.53,8.17-10.22-3.9a43.42,43.42,0,0,1,1.44-4.22l39.12-100.45a52.55,52.55,0,0,1,22.36-26.85l153-91.83a38,38,0,0,1,3.35-1.83q11.52-5.58,5.59,9.78l-2,5.06Z"/><path class="cls-26" d="M1178,834.07q-11.68,5.77-5.59-9.69l1.84-4.72,37-95.07.24-.66a52.53,52.53,0,0,1,22.35-26.85L1264.1,679l69.78-41.94,17.65-10.61,27.07-16.24,8.3-5q13.49-8.13,10.38,3.64a38,38,0,0,0-3.35,1.83l-153,91.83a52.55,52.55,0,0,0-22.36,26.85l-39.12,100.45A43.42,43.42,0,0,0,1178,834.07Z"/><path class="cls-27" d="M1190.8,723.76q3.2,1.83.47,3.49l-26.82,16.07a5.74,5.74,0,0,1-6.07-.16l-17.73-10.78c-2-1.21-2.08-2.37-.16-3.48l26.83-16.08a5.2,5.2,0,0,1,5.75.17Zm-16.53,95.9a15.69,15.69,0,0,1-3.59-1.58l-49-29.5q-8.62-5.15,4.31-12.93l85.36-51.06Z"/></g></svg>