<svg id="Layer_1" data-name="Layer 1" xmlns="http://www.w3.org/2000/svg" viewBox="0 0 2387.32 1791.62"><defs><style>.cls-1{fill:#d1b9d9;}.cls-1,.cls-10,.cls-11,.cls-12,.cls-13,.cls-14,.cls-15,.cls-16,.cls-17,.cls-18,.cls-19,.cls-2,.cls-20,.cls-21,.cls-22,.cls-23,.cls-24,.cls-25,.cls-27,.cls-28,.cls-29,.cls-3,.cls-30,.cls-31,.cls-32,.cls-33,.cls-34,.cls-35,.cls-36,.cls-37,.cls-38,.cls-39,.cls-4,.cls-40,.cls-5,.cls-6,.cls-8,.cls-9{fill-rule:evenodd;}.cls-2{fill:#dfcae3;}.cls-3{fill:#eee0ee;}.cls-4{fill:#f0e4f0;}.cls-26,.cls-5{fill:#010101;}.cls-6{fill:#9066ac;}.cls-13,.cls-42,.cls-7{fill:#fff;}.cls-8{fill:#a77fb9;}.cls-9{fill:#cfb9da;}.cls-10{fill:#b997c6;}.cls-11,.cls-41{fill:#6c4697;}.cls-12{fill:#4d2c7a;}.cls-14{fill:#fab893;}.cls-15{fill:#e47762;}.cls-16{fill:#bb453b;}.cls-17{fill:#11100f;}.cls-18{fill:#fbbe9c;}.cls-19{fill:#c54d42;}.cls-20{fill:#339967;}.cls-21{fill:#da6e55;}.cls-22{fill:#9d3024;}.cls-23{fill:#1f1b19;}.cls-24{fill:#ed8871;}.cls-25{fill:#f7a18d;}.cls-27{fill:#d2634b;}.cls-28{fill:#9d3422;}.cls-29{fill:#653b95;}.cls-30{fill:#a183bc;}.cls-31{fill:#2c174a;}.cls-32{fill:#9d79b6;}.cls-33{fill:#8f6aae;}.cls-34{fill:#fab293;}.cls-35{fill:#da664f;}.cls-36{fill:#fcc5a8;}.cls-37{fill:#2e1f40;}.cls-38{fill:#fed620;}.cls-39{fill:#fcf9ce;}.cls-40{fill:#f9a01b;}.cls-42{font-size:63.47px;font-family:BebasNeue;}</style></defs><path class="cls-1" d="M1216.78,1726.82l2.71,1.15M353.54,1297.1C429.33,1528.65,601,1637.83,815.27,1596c48.53-9.49,97.15-7.62,144.69,3.63,52.89,12.52,103,36.32,148.89,66.89,54.19,37.39,113.62,67.53,176.49,83.87,107.09,27.88,212.09,12.62,307.63-49.63,147.82-96.31,220.36-282.62,182.42-468.52q-5-23.22-8.27-45.48h0q-25-169.9,50-284.56c106.63-169.92,94.85-315.5-50.8-428.28-79.68-62.77-108.21-131.44-120.92-206.9-15.51-96.81-72.83-168-145.35-206.46a251,251,0,0,1-23.09,89.1l-6.14,13.09a243,243,0,0,1-27.43,46.65L1431,225.94l-16.7,24.95c-4.92,7.34-10.15,14.55-15.23,21.77l-12.15,17.28a235.44,235.44,0,0,1-20.83,25.62l-16.2,17.29a228.27,228.27,0,0,1-39.6,33.69,239.07,239.07,0,0,1-38.33,53.73,233.07,233.07,0,0,1-55.61,57.79,224.65,224.65,0,0,1-30.76,22.73,226.4,226.4,0,0,1-18.33,13.47,227.27,227.27,0,0,1-32.43,26,227.54,227.54,0,0,1-19.11,16.44,227.3,227.3,0,0,1-37.59,31.09c-1.37,1.3-2.74,2.6-4.14,3.87a229.88,229.88,0,0,1-52.09,47.66c-36.73,28-81.7,44.52-130.29,44.52-106,0-194.86-78.52-218.23-184A569.58,569.58,0,0,0,569,540.67v7.6a252.25,252.25,0,0,1-24.75,109.39l-1.23,5a251.19,251.19,0,0,1-13.86,43.9,250.31,250.31,0,0,1-9.79,39.34,246.81,246.81,0,0,1-29.69,77.31A243.42,243.42,0,0,1,466,872q-3,6-6.33,11.9-3.81,10.06-8.43,19.66-2.69,8.22-5.91,16.15a248.47,248.47,0,0,1-18.44,53.16c-.41,1.24-.82,2.48-1.25,3.72q-.78,2.73-1.63,5.44a252.32,252.32,0,0,1-8.14,34.79c-.24,1.52-.5,3-.77,4.54v11.15a252.64,252.64,0,0,1-6.61,61.82c-.6,4.26-1.32,8.48-2.13,12.67a250.85,250.85,0,0,1-23,88.35l-2.08,4.46a241.06,241.06,0,0,1-38.79,60.62q5.1,18.88,11,36.81Z"/><path class="cls-2" d="M1216.78,1726.82l2.71,1.15M353.54,1297.1c53.49,163.44,154.75,265.89,285,297.33,41.13-53.51,103.57-87.67,173.5-87.67,76.6,0,144.22,41,184.67,103.53,39.42,13.44,77,32.87,112.1,56.26,37.64,26,77.45,48.21,119.44,65,37.83-115.41,152.6-183.09,266-152.85l16,4.25a214.22,214.22,0,0,1,53.7,21.13,216,216,0,0,1,52.17,19.73l8.32,4.44q10.1,2.9,20,6.85,9.81,3,19.22,7c99.15-103.15,143-256.62,111.71-409.85q-5-23.22-8.27-45.48h0q-25-169.9,50-284.56c106.63-169.92,94.85-315.5-50.8-428.28-79.68-62.77-108.21-131.44-120.92-206.9C1632.36,186,1590,122.92,1534,81.93c-13.74,45.41-40.3,86.89-78.8,117.69l-.22.18,1.55-1.65a301.36,301.36,0,0,1-25,23.19l2.3-2.45-10,10.68a227.63,227.63,0,0,1-21.66,21,231,231,0,0,1-41,42.43,227.07,227.07,0,0,1-37,32.56l-13.41,14.31a226.69,226.69,0,0,1-45.4,37.37,225.91,225.91,0,0,1-80.2,61.93q-4.52,5.16-9.3,10c-1.69,1.91-3.42,3.77-5.16,5.63a235.36,235.36,0,0,1-15.27,20.22,234,234,0,0,1-31.08,37.65,229.91,229.91,0,0,1-33.87,31.67,236.67,236.67,0,0,1-15.9,21.17c-40.63,61.09-107.46,101-183,101-100.56,0-185.66-70.62-214.11-167.91a582.72,582.72,0,0,0-96.31,36,251.48,251.48,0,0,1-23.66,112l-6.08,13a242.7,242.7,0,0,1-20,36.23q-5.22,9-11.26,17.57-1.63,3.4-3.37,6.75a240.37,240.37,0,0,1-32.62,55.4,239.2,239.2,0,0,1-23,33.65,252.4,252.4,0,0,1-8.94,39.41l-3,9.67c-.27.88-.53,1.76-.81,2.64q-1.89,11.76-4.92,23.42V924.2a255,255,0,0,1-8.1,63.86v5.28a254.94,254.94,0,0,1-8.25,64.43,254.53,254.53,0,0,1-10,63c-7.34,57.81-34,109-72.88,146.07q4.33,15.54,9.21,30.4Z"/><path class="cls-3" d="M1831.21,1027.41c21.34-79.48,83.18-127.46,138.11-107.16s82.16,101.18,60.82,180.66S1947,1228.37,1892,1208.07s-82.16-101.18-60.81-180.66"/><path class="cls-4" d="M1812.07,910.14q2.45-4,5-7.91c94.1-150,96-281-5-387.18Zm-136,282a421.28,421.28,0,0,1,61.28-5.76V448.79c-27.47-26.46-47.07-53.94-61.28-82.49ZM656.9,1123.9c59.3,2.75,118.67,22.27,171.66,60C958.7,1276.43,1008.86,1449,960,1599.66c51.37,12.16,101.49,35.27,148.89,66.89,60.38,41.66,121.39,70.28,181.69,85.19-27.77-179.78,42.46-368.57,193.81-476.21l6.47-4.6q17.37-12.77,35.73-23.69V76.65c-124.29-84.84-310-64.47-396.91,103.33-99.93,186.6-238,271-398.68,305.87a697.59,697.59,0,0,0-74.06,18.87Zm-344.38-67.39c4,90.79,18.15,171.29,40.91,240.77l8.68-13.89c52.77-84.44,133.28-137.32,220-154.06V534.13Q309.51,665.05,312.52,1056.51Z"/><path class="cls-5" d="M889.79,1468.28l-21.2,122.11c85.11-4.45,167.95,24,242.72,75l9.34-21.26a7.41,7.41,0,0,1,13.83.34l18.76,48.54c82.21,49.69,166.15,73.81,248.32,70.54l-35.89-270.35H1218a314.71,314.71,0,0,1-43-3h-34.38a317.71,317.71,0,0,1-48.77-3.77,316.73,316.73,0,0,1-50.45-8H969.18a316.67,316.67,0,0,1-79.39-10.14"/><path class="cls-6" d="M632.56,1303.55q-3.1,41.61,20,91.83c24.23,52.59,60.45,98.35,115.83,97.3s102.41-43.55,112.5-101.64-19.52-115.75-70.86-137.92q-153.94-61.59-177.49-86.8-7.78,90.4,41,155.46-22.58-1.2-41-18.23"/><path class="cls-7" d="M642.88,1181.61c-1.11-2.36-3.11-5.55-5.33-4.36s-2,3.74-.91,6.1q41.75,89.76,87.73,163.69,46.08,74.12,96.55,132.59a4.3,4.3,0,0,0,6.36.31,5,5,0,0,0,.29-6.79q-50-57.93-95.69-131.42c-30.54-49.1-61.4-100.78-89-160.12"/><path class="cls-7" d="M799.52,1450.85a4.08,4.08,0,0,0,2.33-5.09,3.7,3.7,0,0,0-4.77-2.49,110.51,110.51,0,0,1-72.38,1.43,3.73,3.73,0,0,0-4.68,2.68,4.05,4.05,0,0,0,2.51,5,118,118,0,0,0,77-1.52"/><path class="cls-7" d="M759.4,1393a4.07,4.07,0,0,0,2.33-5.08,3.7,3.7,0,0,0-4.77-2.49,110.51,110.51,0,0,1-72.38,1.43,3.72,3.72,0,0,0-4.68,2.68,4.06,4.06,0,0,0,2.51,5,118,118,0,0,0,77-1.53"/><path class="cls-7" d="M725,1332.45a3.59,3.59,0,0,1-5.28.59,4.18,4.18,0,0,1-.55-5.63,127.82,127.82,0,0,0,18.4-33.8,132.76,132.76,0,0,0,7.74-38.22,3.86,3.86,0,0,1,4-3.77,3.92,3.92,0,0,1,3.53,4.23,141.34,141.34,0,0,1-8.26,40.63,136.05,136.05,0,0,1-19.55,36"/><path class="cls-7" d="M778.84,1409.82a3.6,3.6,0,0,1-5.28.59,4.21,4.21,0,0,1-.55-5.64,127.76,127.76,0,0,0,18.4-33.79,132.77,132.77,0,0,0,7.75-38.23,3.84,3.84,0,0,1,4-3.76,3.92,3.92,0,0,1,3.54,4.23,141.34,141.34,0,0,1-8.26,40.62,136,136,0,0,1-19.56,36"/><path class="cls-6" d="M1636.11,1241.62q3.86,51.77-24.9,114.22c-30.13,65.41-75.19,122.32-144.06,121s-127.37-54.16-139.93-126.42,24.28-144,88.14-171.53q191.46-76.61,220.75-108,9.69,112.44-51,193.35,28.08-1.49,51-22.67"/><path class="cls-7" d="M1623.28,1090c1.37-2.94,3.86-6.9,6.62-5.43s2.52,4.66,1.14,7.6q-51.93,111.63-109.11,203.59-57.33,92.16-120.09,164.91a5.37,5.37,0,0,1-7.92.37,6.26,6.26,0,0,1-.35-8.44q62.16-72,119-163.45c38-61.07,76.37-125.35,110.7-199.15"/><path class="cls-7" d="M1428.46,1424.82a5.08,5.08,0,0,1-2.91-6.33,4.61,4.61,0,0,1,5.93-3.09,137.48,137.48,0,0,0,90,1.78,4.64,4.64,0,0,1,5.82,3.33,5,5,0,0,1-3.12,6.21,146.77,146.77,0,0,1-95.75-1.9"/><path class="cls-7" d="M1478.36,1352.92a5.08,5.08,0,0,1-2.91-6.33,4.61,4.61,0,0,1,5.93-3.1,137.4,137.4,0,0,0,90,1.79,4.62,4.62,0,0,1,5.82,3.33,5.05,5.05,0,0,1-3.12,6.21,146.77,146.77,0,0,1-95.75-1.9"/><path class="cls-7" d="M1521.15,1277.57a4.47,4.47,0,0,0,6.57.73,5.21,5.21,0,0,0,.69-7,158.8,158.8,0,0,1-22.89-42,164.82,164.82,0,0,1-9.63-47.54A4.79,4.79,0,0,0,1491,1177a4.88,4.88,0,0,0-4.39,5.26,175.8,175.8,0,0,0,10.27,50.52,169.1,169.1,0,0,0,24.32,44.75"/><path class="cls-7" d="M1454.17,1373.79a4.48,4.48,0,0,0,6.57.74,5.21,5.21,0,0,0,.68-7,159,159,0,0,1-22.88-42,165.23,165.23,0,0,1-9.64-47.54,4.79,4.79,0,0,0-4.93-4.69,4.88,4.88,0,0,0-4.39,5.26,175.6,175.6,0,0,0,10.27,50.53,169,169,0,0,0,24.32,44.74"/><path class="cls-8" d="M1603.75,1469.24q-15.95,30.32-53.76,53.61c-39.61,24.4-84.55,38.12-122.39,10s-51.9-80.76-33.64-125.94,63.8-70.4,108.94-60.34q133.24,33.56,160.48,27.76-33.9,66.38-95.92,87.23,16.13,10.35,36.29,7.68"/><path class="cls-7" d="M1649.6,1379.8c1.79-1.08,4.56-2.3,5.58-.38s-.23,3.59-2,4.67q-67.87,41.43-131.81,69.82T1397,1497.86a3.74,3.74,0,0,1-4.53-2.94,4,4,0,0,1,2.75-4.83q59.74-15.35,123.29-43.56c42.46-18.86,86.26-39.34,131.14-66.73"/><path class="cls-7" d="M1424.26,1488.54a3.49,3.49,0,0,1,.6-4.67,3,3,0,0,1,4.38.63,101.37,101.37,0,0,0,22,22.56,95.63,95.63,0,0,0,27.45,14.23,3.38,3.38,0,0,1,2.07,4.17,3.09,3.09,0,0,1-3.9,2.21,101.48,101.48,0,0,1-29.17-15.15,107.75,107.75,0,0,1-23.42-24"/><path class="cls-7" d="M1477.14,1468.4a3.49,3.49,0,0,1,.59-4.68,3,3,0,0,1,4.38.64,101.37,101.37,0,0,0,22,22.56,95.88,95.88,0,0,0,27.45,14.23,3.38,3.38,0,0,1,2.07,4.17,3.09,3.09,0,0,1-3.9,2.21,101.61,101.61,0,0,1-29.17-15.15,107.71,107.71,0,0,1-23.41-24"/><path class="cls-7" d="M1527.26,1443.52a3.2,3.2,0,0,0,3.4,3,3.28,3.28,0,0,0,2.82-3.63,111.57,111.57,0,0,1,2-32.47,108.9,108.9,0,0,1,11.26-30.27,3.47,3.47,0,0,0-1.11-4.57,3,3,0,0,0-4.28,1.18,115.4,115.4,0,0,0-11.94,32.18,118.4,118.4,0,0,0-2.11,34.56"/><path class="cls-7" d="M1456.39,1470.39a3.2,3.2,0,0,0,3.4,3,3.29,3.29,0,0,0,2.83-3.63,110.88,110.88,0,0,1,2-32.47,108.56,108.56,0,0,1,11.25-30.27,3.46,3.46,0,0,0-1.11-4.57,3,3,0,0,0-4.28,1.18,116,116,0,0,0-11.94,32.18,118.4,118.4,0,0,0-2.11,34.56"/><path class="cls-9" d="M1053.06,813.8l130.12-22.56,15.9,738.59a189.57,189.57,0,0,1-133.64,8.46q-12.37-724.48-12.38-724.49"/><path class="cls-10" d="M1054.34,1510.45l18.35,13.84q56.8,12.33,103.82-1.8s-8.77-218.31-26.3-654.93q-10.83,542.58-95.87,642.89"/><path class="cls-11" d="M1377.5,1017.13l83.41-5.48q-21.56-155.5-21.56-155.51c-7.17-52.54-49.13-93.74-118-126.14q56.11,287.13,56.11,287.13"/><path class="cls-11" d="M771.36,1083.94l73.37,9.59s7.9-111,23.69-333.17Q813.1,789.5,799.29,874.5l-27.93,209.44"/><path class="cls-12" d="M1150.21,867.56,1302.85,720c49.28,22.77,76.86,60.46,78.29,141.57l29.43,669.2C1336,1575.39,1249.22,1591,1165,1575.05t-14.83-707.49"/><path class="cls-12" d="M1076.83,867.56,918.29,720c-48.37,22.77-74.44,60.46-72.63,141.57T843,1530.8c76.38,44.59,163.77,60.22,247.3,44.25l-13.44-707.49"/><path class="cls-13" d="M1241.05,694.45q-254.82,50.64-269.4,16.37l-26.5,8.37c20.81,80.31,91.32,134.24,169.29,129.5s142.28-66.88,154.39-149.19q-28.72-6.76-27.78-5"/><path class="cls-14" d="M1159.4,514.51,1026.23,667s-.14,10.11-.43,30.34l-54.15,13.47c18,66.15,76.46,110.25,140.91,106.29s117.79-55,128.53-122.88l-53.51-10.31q-28.18-169.41-28.18-169.41"/><path class="cls-15" d="M1035.68,656.18l115.26-132s8.31,51.57,25,154.71c-18.75,18.27-111.26,78.39-136.2,42.56q-4-65.29-4-65.29"/><path class="cls-16" d="M1037.42,684.5c80.34-78,117.35-141,117.35-141s5.87,40.88,11.3,74.53c-46.35,71.43-96.43,118.28-128.13,74.9q-.53-8.42-.52-8.42"/><path class="cls-17" d="M1109.66,393.74q-29.12,121.8,45.09,151.39c39.19-9.2,45.15-52,26.8-144-19.81-103.42-88.68-129.34-247.92-129.31-30.66,0-56.32,22.75-59.47,54.92s17.64,61.43,47.53,66.86q146.34-87.16,188,.15"/><path class="cls-18" d="M1004.57,685.72c59.82-12.93,106.93-40,136.78-88q21.84-35.45,8.16-101.68l-27.26-6.53q-17.88-33.62-6.62-98.16c-2-57.1-76.36-73.41-122.43-60.16S918.41,383,907.48,436.69c-5.87,29-4,39.5,11.66,50.56q17.6,12.13,10.67,29.14c-5.18,11.85-2.63,22.12,7.93,43.86l42.6,88.17q1.65,42.15,24.23,37.3"/><path class="cls-19" d="M1041.68,397c20.41,0,37,17.65,37,39.43s-16.54,39.42-37,39.42-37-17.65-37-39.42,16.54-39.43,37-39.43"/><path class="cls-13" d="M1031.86,395.84c18.28,0,33.11,15.82,33.11,35.32s-14.83,35.33-33.11,35.33-33.11-15.82-33.11-35.33,14.82-35.32,33.11-35.32"/><path class="cls-20" d="M1036.5,398.81c10.88,0,19.69,9.41,19.69,21s-8.81,21-19.69,21-19.68-9.4-19.68-21,8.81-21,19.68-21"/><path class="cls-5" d="M1039.92,401.21c6.26,0,11.35,5.42,11.35,12.1s-5.09,12.11-11.35,12.11-11.35-5.42-11.35-12.11,5.08-12.1,11.35-12.1"/><path class="cls-13" d="M1024.3,404.5a8,8,0,1,1-7.47,8,7.73,7.73,0,0,1,7.47-8"/><path class="cls-19" d="M950.75,446.19c17.88,0,32.37,15.46,32.37,34.53s-14.49,34.54-32.37,34.54-32.37-15.47-32.37-34.54,14.49-34.53,32.37-34.53"/><path class="cls-13" d="M942.12,442.15c16.28,0,29.49,14.09,29.49,31.47s-13.21,31.47-29.49,31.47-29.5-14.09-29.5-31.47,13.21-31.47,29.5-31.47"/><path class="cls-20" d="M946.68,445.86c9.69,0,17.54,8.38,17.54,18.71s-7.85,18.71-17.54,18.71-17.53-8.37-17.53-18.71,7.85-18.71,17.53-18.71"/><path class="cls-5" d="M949.72,448c5.59,0,10.11,4.83,10.11,10.79s-4.52,10.78-10.11,10.78-10.1-4.83-10.1-10.78S944.14,448,949.72,448"/><path class="cls-13" d="M932.58,449.26a7.11,7.11,0,1,1-6.66,7.1,6.88,6.88,0,0,1,6.66-7.1"/><path class="cls-21" d="M972.66,437.35c.64-7,2.19-11.38,7.53-12.71s10.48,2.06,12,7.84l16.2,65a14.5,14.5,0,0,1,15-8.91A15.06,15.06,0,0,1,1036.05,501a16,16,0,0,1-7.11,16.68q-16.52-1.4-15.69,15.08c-5,9.46-14.46,15.21-24.63,15s-19.41-6.39-24-16.06a31.16,31.16,0,0,1,1.88-30.19q6.19-64.18,6.2-64.19"/><path class="cls-22" d="M1052.54,587.28q28.56-23.52,15.06-75.1a11.61,11.61,0,0,0-8-6q3.21,25-30,42.41l-60.68,21.72q18.23,31.09,25.2,47.64,29.17-15.44,58.45-30.68"/><path class="cls-13" d="M1058.16,547.57q-12.15,13-21.12,18.19l-52.36,22.57-7.1-12.91L1032,554.88a100.21,100.21,0,0,0,23.09-17.07l3.1,9.76"/><path class="cls-22" d="M1057.22,603q-18,9-49,19.89L1054,598.3q8.87-5.12,11.43-9.72a44.1,44.1,0,0,1-8.18,14.38"/><path class="cls-23" d="M998.35,359.88c47.22-13.32,89.18,4.35,84.78,41.8q-15.56-34.83-84.77-19.88c-8,1.53-16.2-5.16-19.86-13.36a23.17,23.17,0,0,1,3-24.27,15.41,15.41,0,0,0,4.77,12.31c3.33,3.11,7.81,4.64,12,3.4"/><path class="cls-23" d="M928.13,427.82c-21,18.59-32,34.54-23,52.71q.52-13.18,35.35-35.63c7.35-4.63,9.65-14.59,7.07-23.13s-10-14.33-18.4-14.37c4.27,6.19,4.71,15.17-1,20.42"/><path class="cls-24" d="M991.36,507.18c9.29,0,16.82,8,16.82,17.95s-7.53,18-16.82,18-16.83-8-16.83-18,7.53-17.95,16.83-17.95"/><path class="cls-25" d="M978.31,515.53c4.75,0,8.59,4.1,8.59,9.17a8.61,8.61,0,1,1-17.18,0c0-5.07,3.84-9.17,8.59-9.17"/><path class="cls-15" d="M1118.83,612.07q-42.24,51.67-76.64,57.61c45.62-35.07,70.49-70.58,53.47-161.79q-19.23-51-4.87-110.76,5.71-23.33-3-47.36,22,18.94,21.84,44Q1095.8,450.28,1117,493l28.66,6.39q8.49,72.27-26.79,112.7"/><polygon class="cls-26" points="1091.63 430.4 1141.88 449.46 1140.16 454.64 1089.92 435.58 1091.63 430.4"/><path class="cls-26" d="M968.44,448a35.73,35.73,0,0,0-52.83,0,41.76,41.76,0,0,0,0,56.36,35.71,35.71,0,0,0,52.83,0,41.76,41.76,0,0,0,0-56.36m106.44-45.35a44.18,44.18,0,0,0-65.32,0,51.63,51.63,0,0,0,0,69.69,44.15,44.15,0,0,0,65.32,0,51.63,51.63,0,0,0,0-69.69ZM942,430.84a41.07,41.07,0,0,1,30.06,13.28,45.39,45.39,0,0,1,7.57,10.95L992.21,450a58.56,58.56,0,0,1-1.33-12.45,56.48,56.48,0,0,1,15-38.74,49.1,49.1,0,0,1,72.6,0,57.4,57.4,0,0,1,0,77.47,49.1,49.1,0,0,1-72.6,0,55.48,55.48,0,0,1-12.29-21l-11.86,4.84a48,48,0,0,1,2.76,16.1,46.78,46.78,0,0,1-12.45,32.07,40.65,40.65,0,0,1-60.11,0,47.52,47.52,0,0,1,0-64.13A41.07,41.07,0,0,1,942,430.84Z"/><path class="cls-23" d="M1017.11,703.24c33.24-7.89,72.19-20.52,100.54-43.14,17.68-14.44,11.13-54.82-14.77-119a4.64,4.64,0,0,0-6.32-2.16,5.25,5.25,0,0,0-2.26,6.66c13.3,46.81,14.26,73.53,3.16,83.65q-36.11,32.52-87.26,46.88c-10,3.07-16.68-8.53-20.09-30.46t-15.63-34.54a4.68,4.68,0,0,0-6.35-2.39,5.3,5.3,0,0,0-2.38,6.73q12.74,34.46,12.73,34.46c-1.41,38.79,11.95,59.2,38.63,53.29"/><path class="cls-18" d="M1140.43,507.62a22.34,22.34,0,0,0,18.32,13.54,20.33,20.33,0,0,0,19.76-9.67q10.24-18.71,15-44.73c2.86-15.94,3.6-23.5-4.42-33A32.94,32.94,0,0,0,1156.42,423a28.9,28.9,0,0,0-22.08,24.23q-4.3,35.43,6.09,60.38"/><path class="cls-27" d="M1150.07,493.11a13.32,13.32,0,0,0,10.92,8.06,12.09,12.09,0,0,0,11.78-5.76q6.11-11.15,9-26.66c1.7-9.5,2.15-14-2.63-19.65a19.66,19.66,0,0,0-19.49-6.43,17.25,17.25,0,0,0-13.16,14.44q-2.57,21.13,3.63,36"/><path class="cls-28" d="M1148.08,483.94a8,8,0,0,0,6.51,4.81,7.23,7.23,0,0,0,7-3.44,52.7,52.7,0,0,0,5.34-15.89c1-5.66,1.28-8.35-1.57-11.71a11.73,11.73,0,0,0-11.62-3.83,10.27,10.27,0,0,0-7.84,8.61q-1.53,12.58,2.16,21.45"/><polygon class="cls-29" points="1163.94 841.37 1198.62 841.37 1209.37 1564.86 1174.69 1564.86 1163.94 841.37"/><path class="cls-29" d="M871.28,903.42h128V1033.7h-128Zm156.59-44.66h34.69l10.75,706.1h-34.69Z"/><path class="cls-30" d="M1045.38,890.21c5.44,0,9.86,4.71,9.86,10.52s-4.42,10.51-9.86,10.51-9.86-4.71-9.86-10.51,4.42-10.52,9.86-10.52"/><path class="cls-30" d="M1045.38,984.11c5.44,0,9.86,4.71,9.86,10.52s-4.42,10.51-9.86,10.51-9.86-4.71-9.86-10.51,4.42-10.52,9.86-10.52"/><path class="cls-30" d="M1049.09,1185.17c5.44,0,9.86,4.71,9.86,10.52s-4.42,10.51-9.86,10.51-9.86-4.7-9.86-10.51,4.42-10.52,9.86-10.52"/><path class="cls-30" d="M1050.08,1282.38c5.44,0,9.86,4.71,9.86,10.52s-4.42,10.51-9.86,10.51-9.86-4.7-9.86-10.51,4.41-10.52,9.86-10.52"/><path class="cls-30" d="M1053.23,1390.09c5.44,0,9.86,4.71,9.86,10.52s-4.42,10.52-9.86,10.52-9.86-4.71-9.86-10.52,4.41-10.52,9.86-10.52"/><path class="cls-30" d="M1054.34,1489.41c5.44,0,9.86,4.71,9.86,10.52s-4.42,10.52-9.86,10.52-9.86-4.71-9.86-10.52,4.42-10.52,9.86-10.52"/><path class="cls-31" d="M1295.82,1553.86q51-12.4,87.84-33.84s-7.52-218.53-22.57-655.58q-1.89-109.2-70.52-132.54-26.68,66.23-26.69,66.22-40.12,226.38-40.13,226.38c0,76.66,20.78,151.68,60,215.94q12.1,313.43,12.1,313.42"/><path class="cls-32" d="M1141.31,834.64a22.59,22.59,0,0,0-3.26,18.83,20.92,20.92,0,0,0,12.16,14.09q86.67-52,91.86,74.4c45.23-66.93,66.57-148.89,60.18-231.12C1280,692,1252,682.52,1223.56,684.31a708.69,708.69,0,0,1-82.25,150.33"/><path class="cls-32" d="M1074.87,846.05a22.59,22.59,0,0,1,3.26,18.83A21,21,0,0,1,1066,879q-86.67-52-91.86,74.39c-45.23-66.93-66.57-148.89-60.18-231.11,22.27-18.88,50.29-28.33,78.69-26.53a708.38,708.38,0,0,0,82.24,150.32"/><path class="cls-33" d="M919.57,1205s-2.82,8.53-8.47,25.59c-35.91,17.32-77.88,11.75-108.71-14.42s-45.36-68.55-37.62-109.77,36.45-74.36,74.36-85.84T862,1034.44c-29.92,23.49-42.18,64.92-30.34,102.48s50.72,68.69,87.87,68.12"/><path class="cls-34" d="M1355.19,933.09q13.07,139.27,75.43,48.58c-12.15-32.35-42.94-52.17-75.43-48.58m-115,35.73,48.61,79.26L914.42,1211.57c-31.23,9.74-64.95.09-87.42-25s-29.93-61.49-19.36-94.32,37.43-56.63,69.62-61.71Z"/><path class="cls-33" d="M1428.25,971.24c39.45,30.32,54.87,85.13,37.61,133.61s-62.92,78.55-111.28,73.28-87.37-44.56-95.09-95.77l14.92-22.8,130.9-79,22.94-9.27"/><path class="cls-35" d="M1264.48,1008.47q10.43,34.5,10.43,34.49l-360,152.22c-27,6.85-55.41-.13-76.86-18.88l426.44-167.83"/><path class="cls-36" d="M1093.81,768.92q38,27.48,68.27,35.11s44.26,100.67,132.77,302c28.24,34,76.51,38.59,109.9,10.33s40.22-79.44,15.56-116.52T1231.6,756.49q-12.42-93-32.76-105.87-23.86-22.17-30.22-44.78a5.65,5.65,0,0,0-4.34-3.79,5.38,5.38,0,0,0-5.23,2.17,40.6,40.6,0,0,0,.77,48.27l-97.9-47a10.39,10.39,0,0,0-12.25,5.13,12,12,0,0,0,1.73,13.92l57.07,37.78q-46.59,76.57-14.66,106.55"/><path class="cls-15" d="M1099.63,756.75q37.78,16.14,83.78,11.71l196.93,346.2c-24.95,12.48-54.7,4.35-70.95-19.4L1173.55,792.91q-46.53-13.2-73.92-36.16"/><path class="cls-37" d="M1174.08,183.88l14.36,4.92c6.06,2.07,9.43,9.07,7.48,15.54l-6.27,20.86,4.52,1.55a6.28,6.28,0,0,1,3.75,7.77l-.51,1.68a5.74,5.74,0,0,1-7.28,4l-4.52-1.54-1.73,5.72,4.53,1.55a6.3,6.3,0,0,1,3.74,7.77l-.51,1.68a5.74,5.74,0,0,1-7.28,4l-4.52-1.55-1.5,5,4.52,1.55a6.29,6.29,0,0,1,3.75,7.77l-.51,1.68a5.74,5.74,0,0,1-7.28,4l-4.84-1.66a11.3,11.3,0,0,1-13.41,5.3l-14.36-4.92a12.4,12.4,0,0,1-8-12.63l-3.91-1.34a6.28,6.28,0,0,1-3.74-7.77l.5-1.68a5.75,5.75,0,0,1,7.29-4l3.59,1.23,1.49-5-3.59-1.22a6.3,6.3,0,0,1-3.74-7.77l.51-1.69a5.74,5.74,0,0,1,7.28-4l3.59,1.23,1.72-5.73L1145.6,225a6.29,6.29,0,0,1-3.74-7.77l.5-1.68a5.75,5.75,0,0,1,7.29-4l3.59,1.23,6.27-20.86c2-6.47,8.5-10.06,14.57-8"/><path class="cls-38" d="M1217.54,59.54c36.1,12.36,56,53.59,44.39,92.1-8.4,27.92-31,46.74-56.6,50.27l-3.22,10.74c-3,9.86-13,15.34-22.2,12.17l-18.84-6.45c-9.24-3.16-14.37-13.82-11.41-23.68l2.8-9.29c-20.73-18.56-30-49.32-21.25-78.51,11.58-38.51,50.23-59.71,86.33-47.35"/><path class="cls-39" d="M1174.45,82.61c8,9.24,7.13,27.6-1.94,41s-22.91,16.8-30.91,7.57-7.13-27.6,1.94-41,22.91-16.81,30.91-7.58"/><path class="cls-40" d="M1241.2,79.67c17.45,17.76,24.9,45.22,17,71.37-8,26.42-29.36,44.22-53.55,47.57l-3.06,10.15c-2.81,9.34-12.26,14.52-21,11.53l-17.83-6.1c-8.75-3-13.61-13.08-10.8-22.42l2.52-8.39a71.18,71.18,0,0,0,38.84-.93l.34-.11c38.45-11.67,60.75-54.4,49.8-95.42q-1-3.72-2.3-7.25"/><polygon class="cls-13" points="1282.8 311.44 1332.08 315.75 1290.49 407.8 1352.39 429.25 1234.4 567.12 1316.82 440.94 1253.56 419.07 1282.8 311.44"/><polygon class="cls-13" points="797.93 547.38 772.83 569.23 827.31 602.44 801.37 638.53 913.02 666.21 824.63 630.76 851.17 593.89 797.93 547.38"/><path class="cls-41" d="M822.48,496.87l12,15.54,14.56-12.82-12-15.53Zm8.59-19.63a31.87,31.87,0,0,1-5-5.23c-5.1-6.6-7.17-13.15-7.83-26.85-.74-17.08-4.11-27.41-12.61-38.4-12.69-16.42-27.5-19.15-42.2-6.22s-15,29-2.31,45.38L769,456l14.28-12.57-8.61-11.14c-5.66-7.33-5.07-12.53-.26-16.76s9.71-3.86,15.37,3.47c7.6,9.82,10.88,18.25,12.08,34.43,1,14.14,3.73,21.84,10.08,30.05a23.73,23.73,0,0,0,5.69,5.57Z"/><path class="cls-41" d="M1340.88,656.17l-5,13.43,12.59,5.32,5-13.42Zm14.53-1a24.48,24.48,0,0,1,1.37-5.14c2.12-5.7,5.26-9.35,13.1-14.53,9.8-6.41,14.72-12.24,18.25-21.74,5.28-14.19,1.76-25.06-10.94-30.44s-22.24,0-27.52,14.15l-3.25,8.74,12.34,5.23,3.59-9.63c2.35-6.33,5.62-7.73,9.78-6s5.63,5.17,3.27,11.5c-3.15,8.49-7,13.61-16.1,20-8,5.57-11.57,10.06-14.21,17.15a19.06,19.06,0,0,0-1.31,5.75Z"/><path class="cls-13" d="M512.74,774c7.16,0,13,6.19,13,13.83s-5.8,13.82-13,13.82-13-6.19-13-13.82,5.8-13.83,13-13.83"/><path class="cls-13" d="M741.34,747.56a8.89,8.89,0,1,1-8.32,8.87,8.6,8.6,0,0,1,8.32-8.87"/><path class="cls-13" d="M456.75,1017.29c5.74,0,10.4,5,10.4,11.11s-4.66,11.1-10.4,11.1-10.41-5-10.41-11.1,4.66-11.11,10.41-11.11"/><path class="cls-13" d="M634.74,1105.91c5.75,0,10.4,5,10.4,11.1s-4.65,11.11-10.4,11.11-10.41-5-10.41-11.11,4.66-11.1,10.41-11.1"/><path class="cls-13" d="M712.08,604.3a5.57,5.57,0,1,1-5.21,5.56,5.39,5.39,0,0,1,5.21-5.56"/><path class="cls-13" d="M1251.77,601.92a5.56,5.56,0,1,1-5.2,5.55,5.38,5.38,0,0,1,5.2-5.55"/><path class="cls-13" d="M1477.23,747.67c7.15,0,13,6.19,13,13.82s-5.81,13.83-13,13.83-13-6.19-13-13.83,5.81-13.82,13-13.82"/><path class="cls-13" d="M1526.55,653.07a8.89,8.89,0,1,1-8.32,8.87,8.61,8.61,0,0,1,8.32-8.87"/><path class="cls-13" d="M1676,770.33a8.89,8.89,0,1,1-8.31,8.87,8.6,8.6,0,0,1,8.31-8.87"/><path class="cls-13" d="M1431.51,287.93a7,7,0,1,1-6.51,6.94,6.73,6.73,0,0,1,6.51-6.94"/><path class="cls-13" d="M1561,313.74a5.23,5.23,0,1,1-4.89,5.22,5.07,5.07,0,0,1,4.89-5.22"/><path class="cls-13" d="M1437.58,350.42a5.23,5.23,0,1,1-4.89,5.22,5.07,5.07,0,0,1,4.89-5.22"/><path class="cls-13" d="M840.77,849.13a5.56,5.56,0,1,1-5.2,5.55,5.39,5.39,0,0,1,5.2-5.55"/><path class="cls-13" d="M1203.6,1165.06a5.57,5.57,0,1,1-5.21,5.56,5.39,5.39,0,0,1,5.21-5.56"/><path class="cls-13" d="M1024.22,810.48a6.46,6.46,0,1,1-6,6.45,6.25,6.25,0,0,1,6-6.45"/><path class="cls-13" d="M1305.45,813.52a6.46,6.46,0,1,1-6,6.45,6.26,6.26,0,0,1,6-6.45"/><path class="cls-13" d="M1237.42,1414.12a6.46,6.46,0,1,1-6,6.45,6.26,6.26,0,0,1,6-6.45"/><path class="cls-13" d="M1130.91,382.41a5.41,5.41,0,1,1-5.06,5.39,5.23,5.23,0,0,1,5.06-5.39"/><path class="cls-13" d="M925,1081.85a5.41,5.41,0,1,1-5.06,5.4,5.24,5.24,0,0,1,5.06-5.4"/><path class="cls-13" d="M1761.29,621.16a8.89,8.89,0,0,1,0,17.75c-4.59,0-8.31-4-8.31-8.88a8.6,8.6,0,0,1,8.31-8.87"/><path class="cls-13" d="M1526.55,1006a8.89,8.89,0,1,1-8.32,8.87,8.61,8.61,0,0,1,8.32-8.87"/><text class="cls-42" transform="translate(1317.94 161.78) scale(0.94 1)">#</text><path class="cls-7" d="M1412.25,473.05h7.35l-2.15,18.46h-7.34Zm1.92,46.49h10.17l2.38-20.17h5.76l.9-7.86h-5.76l2.15-18.46h5.76l.91-7.86h-5.77l1.92-16.24h-10.17l-1.92,16.24h-7.34l1.92-16.24h-10.17L1403,465.19h-5.66l-.9,7.86h5.65l-2.15,18.46h-5.53l-.91,7.86H1399l-2.37,20.17h10.17l2.37-20.17h7.35Z"/><polygon class="cls-7" points="1308.24 202.37 1304.88 213.24 1324.55 216.82 1310.52 231.79 1319.15 238.57 1328.38 219.64 1337.61 238.57 1346.24 231.79 1332.22 216.82 1351.88 213.24 1348.52 202.37 1330.66 211.96 1333.78 190.86 1322.99 190.86 1326.1 211.96 1308.24 202.37"/></svg>