<svg xmlns="http://www.w3.org/2000/svg" xmlns:xlink="http://www.w3.org/1999/xlink" viewBox="0 0 96 96"><defs><style>.cls-1{fill:url(#linear-gradient);}.cls-2{fill:url(#linear-gradient-2);}.cls-3{fill:url(#linear-gradient-3);}.cls-4{fill:url(#linear-gradient-4);}.cls-5{fill:url(#linear-gradient-5);}.cls-6{fill:url(#linear-gradient-6);}.cls-7{fill:#616380;}.cls-8{fill:#3f405f;}.cls-9{fill:url(#linear-gradient-7);}.cls-10{fill:url(#linear-gradient-8);}.cls-11{fill:url(#linear-gradient-9);}.cls-12{fill:#fffefb;}.cls-13{fill:url(#linear-gradient-10);}.cls-14{fill:url(#linear-gradient-11);}.cls-15{fill:url(#linear-gradient-12);}.cls-16{fill:url(#linear-gradient-13);}.cls-17{fill:url(#linear-gradient-14);}.cls-18{fill:url(#linear-gradient-15);}.cls-19{fill:#fc9404;}.cls-20{fill:url(#linear-gradient-16);}.cls-21{fill:#ffbe09;}.cls-22{fill:url(#linear-gradient-17);}.cls-23{fill:url(#linear-gradient-18);}.cls-24{fill:url(#linear-gradient-19);}</style><linearGradient id="linear-gradient" x1="23.5" y1="74.05" x2="60.5" y2="9.95" gradientUnits="userSpaceOnUse"><stop offset="0" stop-color="#93a2d4"/><stop offset="0.13" stop-color="#abb8de"/><stop offset="0.27" stop-color="#bfcae6"/><stop offset="0.44" stop-color="#cdd6ec"/><stop offset="0.65" stop-color="#d6deef"/><stop offset="1" stop-color="#d8e0f0"/></linearGradient><linearGradient id="linear-gradient-2" x1="12.21" y1="58.7" x2="42.31" y2="58.7" gradientUnits="userSpaceOnUse"><stop offset="0" stop-color="#535899"/><stop offset="1" stop-color="#6267a0"/></linearGradient><linearGradient id="linear-gradient-3" x1="47.17" y1="64.56" x2="71.4" y2="64.56" xlink:href="#linear-gradient-2"/><linearGradient id="linear-gradient-4" x1="21.34" y1="28.07" x2="70.05" y2="28.07" xlink:href="#linear-gradient-2"/><linearGradient id="linear-gradient-5" x1="4.72" y1="42.12" x2="79.06" y2="42.12" gradientUnits="userSpaceOnUse"><stop offset="0" stop-color="#fc9404"/><stop offset="1" stop-color="#ffbe09"/></linearGradient><linearGradient id="linear-gradient-6" x1="40.61" y1="55.09" x2="92.46" y2="55.09" gradientUnits="userSpaceOnUse"><stop offset="0" stop-color="#3f405f"/><stop offset="1" stop-color="#616380"/></linearGradient><linearGradient id="linear-gradient-7" x1="69.38" y1="74.49" x2="91.29" y2="74.49" xlink:href="#linear-gradient-6"/><linearGradient id="linear-gradient-8" x1="41.73" y1="74.49" x2="63.78" y2="74.49" xlink:href="#linear-gradient-6"/><linearGradient id="linear-gradient-9" x1="63.72" y1="81.17" x2="69.44" y2="81.17" gradientUnits="userSpaceOnUse"><stop offset="0" stop-color="#616380"/><stop offset="1" stop-color="#3f405f"/></linearGradient><linearGradient id="linear-gradient-10" x1="75.18" y1="68.5" x2="85.82" y2="68.5" gradientUnits="userSpaceOnUse"><stop offset="0" stop-color="#93a2d4"/><stop offset="1" stop-color="#b8bedf"/></linearGradient><linearGradient id="linear-gradient-11" x1="48.15" y1="3.71" x2="52.61" y2="6.28" gradientUnits="userSpaceOnUse"><stop offset="0" stop-color="#ffbe09"/><stop offset="1" stop-color="#fc9404"/></linearGradient><linearGradient id="linear-gradient-12" x1="48.3" y1="8.99" x2="59.21" y2="19.9" xlink:href="#linear-gradient-5"/><linearGradient id="linear-gradient-13" x1="45.42" y1="14.89" x2="57.48" y2="14.89" xlink:href="#linear-gradient-5"/><linearGradient id="linear-gradient-14" x1="48.78" y1="9.08" x2="50.76" y2="10.22" gradientUnits="userSpaceOnUse"><stop offset="0" stop-color="#b8bedf"/><stop offset="0.32" stop-color="#b4bbde"/><stop offset="0.6" stop-color="#a9b3db"/><stop offset="0.88" stop-color="#97a5d5"/><stop offset="0.92" stop-color="#93a2d4"/></linearGradient><linearGradient id="linear-gradient-15" x1="49.4" y1="11.77" x2="54.4" y2="14.65" xlink:href="#linear-gradient-10"/><linearGradient id="linear-gradient-16" x1="55.43" y1="52.92" x2="69.65" y2="52.92" xlink:href="#linear-gradient-5"/><linearGradient id="linear-gradient-17" x1="72.45" y1="52.92" x2="86.59" y2="52.92" xlink:href="#linear-gradient-5"/><linearGradient id="linear-gradient-18" x1="69.61" y1="57.18" x2="72.49" y2="57.18" xlink:href="#linear-gradient-11"/><linearGradient id="linear-gradient-19" x1="62.8" y1="48.89" x2="79.25" y2="32.44" xlink:href="#linear-gradient-5"/></defs><g id="Layer_9" data-name="Layer 9"><circle class="cls-1" cx="42" cy="42" r="37"/><path class="cls-2" d="M42.27,53.6A4.35,4.35,0,0,0,39,50.73c-1.2-.25-1.51.3-2.8.08a6.54,6.54,0,0,1-3.42-2.2c-2.21-2.16-1.82-3.18-3.4-4-1.41-.76-1.92-.05-3.61-.92s-1.36-1.56-2.85-2.34A7.59,7.59,0,0,0,18,40.88c-1.46.24-2.4.39-2.9,1.15-.65,1,.28,1.88-.17,3.76-.25,1.06-.58.93-1.47,2.77s-1.59,3.18-1,4.25c.43.82,1.21.79,1.68,1.8.57,1.22-.29,1.85.08,3.19.24.87,1.18,1.61,3.06,3.1,1.7,1.35,2.49,1.73,2.6,2.63.08.64-.27.86-.58,1.71-.9,2.47.88,3.63.15,5.93l0,.09a37.34,37.34,0,0,0,9.87,5.48c0-.58-.26-1.11.14-1.8.55-.93,1.45-.64,2.49-1.45,1.27-1,.67-2,2.1-4.41a11.44,11.44,0,0,1,2.24-2.7c1.76-1.54,2.53-1.19,3.27-2.25,1.05-1.48-.23-2.53.34-5.13C40.48,56,42.65,55.44,42.27,53.6Z"/><path class="cls-3" d="M71.4,64.45c-.24-.17-.49-.33-.73-.48-1.44-.93-2.23-.83-2.86-1.71-.48-.67-.24-1-.55-2.34-.5-2.21-1.9-4.18-2.47-4-.17.05-.19.26-.61,2S63.7,59.8,63.44,60c-.73.52-2.21.09-2.38-.55s.88-.88,1-2c.1-.87-.44-1.86-1-2s-.64.52-1.48.68-1.15-.34-1.57-.13c-.8.4,0,2.3-.84,3S55,58.29,53.86,59c-.89.55-.34,1.73-1.38,2.7-.8.74-1.4.29-2.79,1-.39.19-2.4,1.2-2.51,2.67-.1,1.31,1.43,1.77,1.5,3.69,0,.75-.2.76-.15,1.54.09,1.38.9,3,1.83,3.07s.9-1,2.12-1.23c.85-.14,1.24.31,1.93,0s.51-.64,1-1.1a3.43,3.43,0,0,1,4.17-.19c.42.37.3.59.81,1.22a5.46,5.46,0,0,0,1.24,1A37.24,37.24,0,0,0,71.4,64.45Z"/><path class="cls-4" d="M69.32,22.16a1.06,1.06,0,0,0-.51-1.32c-.48-.12-.74.72-1.48.77-.14,0-.49,0-1.6-1s-1.66-1.46-1.52-1.76,1.54-.23,2.54.16c.55.21.6.34.9.38.9.13,1.88-.79,2.4-1.54A37.14,37.14,0,0,0,56.13,7.8a4.57,4.57,0,0,0,.3,3.27c.35.57.69.59,1.08,1.28,1,1.72.43,4.25-.36,4.43s-.9-1.63-2.83-2.82-3.21-.25-4.83-1.48c-1.2-.91-2.17-2.7-1.73-4.05s2.44-1.78,3.73-2.2A37.09,37.09,0,0,0,21.34,11.3c.43,1.13,1.29,2.45,2.28,2.51.69,0,1.25-.5,1.63-.24s.05.9.39,2c.24.77.54.85,1.11,1.88s.34,1.54.82,2c.76.74,1.65.17,2.19.68,1.09,1-2,3.8-1,6.72.64,2,3.16,4.09,3.57,5.23a1,1,0,0,0,.35.55c.36.26.74.07,1,.32a1,1,0,0,1,.26.71c.06,1.06,1,5,3.08,6.14.41.21,1.16.47,1.47.17s.08-.93,0-1c-.38-1.15-1.65-1.28-1.67-2.06a.78.78,0,0,1,.49-.77c.39-.06.62.73,1.67,2.19.73,1,1.21,1.44,1,1.81s-.93.38-.92.51.61,0,1.12.31a2,2,0,0,1,.8,1.11,8.4,8.4,0,0,0,1.71,2.39c1.39,1.4,2.8,0,5.68,1.39,1.24.6,1.33,1,2.61,1.44.61.2,1.28.33,1.6.9.23.4.08.65.17,1.06.32,1.36,2.88,2.49,4.11,1.71.41-.27.77-.8.64-1.16s-1.07-.26-1.64-.93a2.21,2.21,0,0,1-.38-1.42c-.09-1.37.49-1.69.22-2.34a2.27,2.27,0,0,0-2.73-1c-.34.18-.51.48-.64.42s-.07-.48.17-1.54c.39-1.65.49-1.77.37-2-.36-.69-2-.74-3.21-.19-.58.27-.66.89-1.48,1.25a1.21,1.21,0,0,1-.93.16c-.54-.19-.69-1-.8-1.6a3.68,3.68,0,0,1,0-1.51c.12-.55.26-.54.35-1,.17-.86-.2-1.24,0-1.58s.87-.15,1.74-.19c1.89-.09,2.16-1.27,3.89-1.25a2.68,2.68,0,0,1,2,.67c.67.75.17,1.61.86,2.33s1.81.77,2.07.4-.85-1.11-1.07-2.54c-.16-1.06.37-2,1.44-3.9,1.44-2.55,2-2.36,2.29-3.77.24-1,.17-1.84.84-2.29s1,0,1.44-.45.19-1.17.81-2c.34-.46,1-1,1.38-.8s.28,1.06.77,1.28.87-.53,2.22-1.06C68.62,22.44,69.12,22.57,69.32,22.16Z"/><path class="cls-5" d="M59,79.09a1,1,0,1,1,.23-2,25,25,0,0,0,3.82.18,1,1,0,0,1,1,1,1,1,0,0,1-1,1h-.72A28.38,28.38,0,0,1,59,79.09ZM66,78a1,1,0,0,1,.75-1.19,14.68,14.68,0,0,0,3.48-1.27,1,1,0,0,1,.93,1.77,16.73,16.73,0,0,1-4,1.45l-.22,0A1,1,0,0,1,66,78Zm-11.06.34c-1.27-.31-2.58-.69-3.9-1.14a1,1,0,1,1,.64-1.89c1.26.43,2.51.79,3.72,1.08a1,1,0,0,1-.23,2Zm-7.68-2.6c-1.2-.51-2.43-1.09-3.65-1.72a1,1,0,0,1,.91-1.78c1.18.61,2.37,1.17,3.53,1.67a1,1,0,0,1-.39,1.92A.93.93,0,0,1,47.25,75.77Zm25.92-.94a1,1,0,0,1,0-1.42,12.17,12.17,0,0,0,2.15-2.94,1,1,0,1,1,1.77.93,14.17,14.17,0,0,1-2.52,3.43h0a1,1,0,0,1-.7.29A1,1,0,0,1,73.17,74.83ZM40.07,72.1c-1.14-.68-2.28-1.4-3.4-2.16a1,1,0,0,1-.27-1.38,1,1,0,0,1,1.38-.28c1.09.74,2.21,1.44,3.31,2.1a1,1,0,0,1-.51,1.86A1.06,1.06,0,0,1,40.07,72.1Zm37.28-3.91A1,1,0,0,1,76.6,67a19.13,19.13,0,0,0,.46-3.73,1,1,0,0,1,2,.06,20.82,20.82,0,0,1-.51,4.12,1,1,0,0,1-1,.78A.83.83,0,0,1,77.35,68.19Zm-44-.57c-1.06-.8-2.12-1.63-3.16-2.49a1,1,0,0,1-.13-1.41,1,1,0,0,1,1.41-.13c1,.84,2.05,1.65,3.08,2.43a1,1,0,0,1,.2,1.4,1,1,0,0,1-.8.4A1,1,0,0,1,33.39,67.62ZM27.2,62.49c-1-.9-2-1.83-2.9-2.78l0,0a1,1,0,0,1,0-1.39,1,1,0,0,1,1.43,0c.93.92,1.88,1.84,2.84,2.71a1,1,0,0,1-.67,1.74A1.05,1.05,0,0,1,27.2,62.49Zm49.68-3.05a32.27,32.27,0,0,0-.68-3.79,1,1,0,1,1,1.94-.46,36,36,0,0,1,.73,4A1,1,0,0,1,78,60.32h-.12A1,1,0,0,1,76.88,59.44Zm-55.4-2.67c-.9-1-1.79-2-2.63-3a1,1,0,0,1,1.54-1.27c.82,1,1.69,2,2.57,3a1,1,0,0,1-.74,1.67A1,1,0,0,1,21.48,56.77Zm-5.12-6.19c-.81-1.09-1.59-2.19-2.32-3.29a1,1,0,0,1,.27-1.38,1,1,0,0,1,1.39.27c.71,1.07,1.47,2.14,2.26,3.2a1,1,0,0,1-.2,1.4,1,1,0,0,1-.6.2A1,1,0,0,1,16.36,50.58Zm-4.47-6.69c-.7-1.17-1.35-2.36-2-3.53A1,1,0,0,1,10.37,39a1,1,0,0,1,1.35.43c.58,1.13,1.21,2.28,1.89,3.42a1,1,0,0,1-.35,1.37,1,1,0,0,1-.51.14A1,1,0,0,1,11.89,43.89ZM8.21,36.71c-.54-1.27-1-2.54-1.45-3.78a1,1,0,0,1,.63-1.27,1,1,0,0,1,1.26.63c.41,1.19.88,2.41,1.4,3.63a1,1,0,0,1-.52,1.31.92.92,0,0,1-.4.08A1,1,0,0,1,8.21,36.71ZM5.63,29a35.89,35.89,0,0,1-.72-4,1,1,0,0,1,2-.24,31.55,31.55,0,0,0,.68,3.79,1,1,0,0,1-.74,1.21,1,1,0,0,1-.24,0A1,1,0,0,1,5.63,29Zm.06-7.1a1,1,0,0,1-1-1,21.59,21.59,0,0,1,.52-4.13,1,1,0,1,1,2,.45A19.12,19.12,0,0,0,6.72,21a1,1,0,0,1-1,1Zm1.42-7.77a1,1,0,0,1-.41-1.35A14,14,0,0,1,9.21,9.4l.72.7-.71-.71,1.39,1.45a12,12,0,0,0-2.15,2.91,1,1,0,0,1-.88.53A1,1,0,0,1,7.11,14.16Zm5.13-5.93a1,1,0,0,1,.42-1.35,16.7,16.7,0,0,1,4-1.43,1,1,0,0,1,.44,2,14.5,14.5,0,0,0-3.48,1.26,1.11,1.11,0,0,1-.46.11A1,1,0,0,1,12.24,8.23ZM24.63,7.14a27,27,0,0,0-3.17-.2,4.75,4.75,0,0,0-.65,0,1,1,0,0,1,0-2h.7a28.87,28.87,0,0,1,3.41.21,1,1,0,0,1-.12,2Z"/><path class="cls-6" d="M91.27,53.45c1.57.9,1.58,2.37,0,3.28L69.44,69.42a6.21,6.21,0,0,1-5.66,0l-22-12.69c-1.56-.91-1.57-2.37,0-3.28l21.85-12.7a6.25,6.25,0,0,1,5.65,0Z"/><path class="cls-7" d="M92.46,55.1l-.07,22.82a2,2,0,0,1-1.16,1.63l.06-22.82a2,2,0,0,0,1.17-1.63"/><path class="cls-8" d="M41.79,56.73l-.06,22.82a2,2,0,0,1-1.18-1.64l.06-22.83a2,2,0,0,0,1.18,1.65"/><polygon class="cls-9" points="91.29 56.73 91.22 79.55 69.38 92.25 69.44 69.42 91.29 56.73"/><polygon class="cls-10" points="63.78 69.42 63.72 92.25 41.73 79.55 41.79 56.73 63.78 69.42"/><path class="cls-11" d="M69.44,69.42l-.06,22.83a6.27,6.27,0,0,1-5.66,0l.06-22.83a6.21,6.21,0,0,0,5.66,0"/><path class="cls-12" d="M56.65,65.3l-8.51-4.92,0,9a1.55,1.55,0,0,0,.71,1.22l7.09,4.1c.4.23.71,0,.72-.41l0-9"/><path class="cls-12" d="M52.41,78.8l-7.8-4.5c-.79-.46-1.42-.09-1.43.81v1.63a3.11,3.11,0,0,0,1.41,2.45l7.8,4.5c.79.46,1.43.1,1.43-.8V81.26a3.16,3.16,0,0,0-1.42-2.46"/><path class="cls-12" d="M84.54,80.79c-.58.34-1.07.07-1.07-.61V76.11a2.38,2.38,0,0,1,1.06-1.84l3.55-2c.59-.34,1.07-.06,1.07.62v4.07a2.32,2.32,0,0,1-1.06,1.83l-3.55,2.05m3.53-9.38-3.55,2a3.89,3.89,0,0,0-1.77,3.06v4.07c0,1.13.81,1.58,1.78,1l3.55-2a3.92,3.92,0,0,0,1.77-3.06V72.43c0-1.13-.8-1.59-1.78-1"/><polyline class="cls-12" points="86.3 74.88 85.36 77.05 85.84 76.78 85.84 78.41 86.78 77.87 86.78 76.23 87.25 75.96 86.3 74.88"/><path class="cls-12" d="M76.06,85.69c-.58.34-1.06.06-1.07-.61V81a2.35,2.35,0,0,1,1.07-1.84l3.54-2c.59-.34,1.07-.06,1.07.61V81.8a2.36,2.36,0,0,1-1.06,1.84l-3.55,2m3.53-9.38-3.55,2a4,4,0,0,0-1.77,3.07l0,4.07c0,1.12.8,1.58,1.78,1l3.54-2a3.92,3.92,0,0,0,1.77-3.07V77.32c0-1.13-.8-1.58-1.78-1"/><path class="cls-12" d="M78.77,79.23l-1.89,1.09V81.4c0,.51.31.76.71.64v.58l-.71.41v.55l.71-.41.47-.27.71-.41v-.55l-.71.41v-.58a2.07,2.07,0,0,0,.7-1.46V79.23"/><polyline class="cls-12" points="84.16 49.33 75.64 44.41 48.15 60.38 56.67 65.3 84.16 49.33"/><path class="cls-13" d="M84.75,64.82l-8.51,4.91a2.32,2.32,0,0,0-1.06,1.84c0,.68.48,1,1.07.61l8.51-4.91a2.37,2.37,0,0,0,1.06-1.84c0-.68-.48-1-1.07-.61"/><path class="cls-14" d="M47.18,5.4l2.11-1.23c1.1-.64,2.62-.55,4.3.42L51.47,5.82c-1.68-1-3.2-1.06-4.29-.42"/><path class="cls-15" d="M51.47,5.82l2.12-1.23a13.27,13.27,0,0,1,6,10.41c0,2.86-1.77,7-3.87,8.2l-2.11,1.23c2.09-1.22,3.86-5.34,3.87-8.2a13.24,13.24,0,0,0-6-10.41"/><path class="cls-16" d="M51.47,5.82a13.24,13.24,0,0,1,6,10.41c0,3.83-3.18,9.93-6.06,8.27s-6-11.41-6-15.24S48.14,3.9,51.47,5.82Z"/><path class="cls-17" d="M48.39,9.76l.71-.41a2,2,0,0,1,2,.2l-.7.41a2,2,0,0,0-2.06-.2"/><path class="cls-18" d="M50.45,10l.7-.41a6.31,6.31,0,0,1,2.87,5,2,2,0,0,1-.84,1.84l-.7.41a2,2,0,0,0,.84-1.84,6.34,6.34,0,0,0-2.87-5"/><path class="cls-12" d="M50.45,10a6.34,6.34,0,0,1,2.87,5c0,1.82-1.3,2.56-2.89,1.64a6.34,6.34,0,0,1-2.88-5C47.56,9.77,48.85,9,50.45,10Z"/><path class="cls-19" d="M55.47,41.48l0,14.68a1,1,0,0,1-.59-.83l0-14.67a1,1,0,0,0,.59.82"/><polygon class="cls-20" points="69.65 49.67 69.61 64.35 55.43 56.16 55.47 41.48 69.65 49.67"/><path class="cls-21" d="M87.16,40.67l0,14.67a1,1,0,0,1-.57.82l0-14.68a1,1,0,0,0,.57-.81"/><polygon class="cls-22" points="86.59 41.48 86.55 56.16 72.45 64.35 72.49 49.67 86.59 41.48"/><path class="cls-23" d="M72.49,49.67l0,14.68a3.16,3.16,0,0,1-2.84,0l0-14.68a3.09,3.09,0,0,0,2.84,0"/><path class="cls-24" d="M86.57,39.84c.79.46.79,1.19,0,1.64l-14.1,8.19a3.09,3.09,0,0,1-2.84,0L55.47,41.48a.87.87,0,0,1,0-1.64l14.1-8.19a3.11,3.11,0,0,1,2.82,0Z"/><polyline class="cls-12" points="80.88 36.54 78.04 34.9 61.12 44.73 63.96 46.38 80.88 36.54"/><polyline class="cls-12" points="63.94 46.37 61.1 44.73 61.05 59.4 63.9 61.04 63.94 46.37"/><polyline class="cls-12" points="80.92 44.73 78.08 46.37 78.13 61.04 80.97 59.4 80.92 44.73"/><polyline class="cls-12" points="80.93 44.73 63.9 34.9 61.08 36.54 78.1 46.38 80.93 44.73"/><path class="cls-12" d="M58,49.68l-.71-.41c-.39-.22-.71,0-.71.41v5.24a1.54,1.54,0,0,0,.7,1.22l.71.41c.4.23.71.05.71-.41l0-5.23A1.56,1.56,0,0,0,58,49.68"/></g></svg>